<?xml version="1.0" standalone="no"?>
<!DOCTYPE svg PUBLIC "-//W3C//DTD SVG 20010904//EN"
 "http://www.w3.org/TR/2001/REC-SVG-20010904/DTD/svg10.dtd">
<svg version="1.0" xmlns="http://www.w3.org/2000/svg"
 width="700.000000pt" height="700.000000pt" viewBox="0 0 700.000000 700.000000"
 preserveAspectRatio="xMidYMid meet">
<metadata>
Created by potrace 1.11, written by Peter Selinger 2001-2013
</metadata>
<g transform="translate(0.000000,700.000000) scale(0.100000,-0.100000)"
fill="#000000" stroke="none">
<path d="M0 3500 l0 -3500 3500 0 3500 0 0 3500 0 3500 -3500 0 -3500 0 0
-3500z m6117 2793 c-34 -59 -881 -1527 -1024 -1775 l-195 -338 -784 0 c-431 0
-784 -2 -784 -6 0 -3 176 -309 390 -681 l391 -675 -497 -862 c-274 -473 -547
-948 -608 -1053 -61 -106 -114 -193 -117 -193 -4 0 -181 303 -395 673 -627
1087 -1039 1800 -1335 2312 l-277 480 1219 3 c670 1 1219 5 1219 7 0 3 -83
149 -184 323 -101 174 -369 639 -596 1032 -226 393 -418 725 -426 738 l-14 22
2010 0 c1106 0 2009 -3 2007 -7z"/>
</g>
</svg>
