<?xml version="1.0" encoding="utf-8"?>
<!-- Generator: Adobe Illustrator 14.0.0, SVG Export Plug-In . SVG Version: 6.00 Build 43363)  -->
<!DOCTYPE svg PUBLIC "-//W3C//DTD SVG 1.1//EN" "http://www.w3.org/Graphics/SVG/1.1/DTD/svg11.dtd">
<svg version="1.1"
	 id="svg2" sodipodi:version="0.32" inkscape:version="0.43" sodipodi:docbase="/home/sdeibel" sodipodi:docname="logo-python-generic.svg" xmlns:dc="http://purl.org/dc/elements/1.1/" xmlns:cc="http://web.resource.org/cc/" xmlns:rdf="http://www.w3.org/1999/02/22-rdf-syntax-ns#" xmlns:svg="http://www.w3.org/2000/svg" xmlns:sodipodi="http://inkscape.sourceforge.net/DTD/sodipodi-0.dtd" xmlns:inkscape="http://www.inkscape.org/namespaces/inkscape"
	 xmlns="http://www.w3.org/2000/svg" xmlns:xlink="http://www.w3.org/1999/xlink" x="0px" y="0px" width="331.891px"
	 height="112.938px" viewBox="0 0 331.891 112.938" enable-background="new 0 0 331.891 112.938" xml:space="preserve">
<sodipodi:namedview  id="base" inkscape:current-layer="svg2" inkscape:window-y="0" inkscape:window-x="0" inkscape:window-width="791" inkscape:pageopacity="0.0" inkscape:pageshadow="2" inkscape:window-height="543" inkscape:cy="71.887497" inkscape:cx="243.02499" inkscape:zoom="1.4340089" pagecolor="#ffffff" bordercolor="#666666" borderopacity="1.0">
	</sodipodi:namedview>
<g id="g2303">
	<path id="path46" fill="#646464" d="M36.112,58.667c0-14.563-4.151-22.038-12.457-22.447c-3.303-0.156-6.53,0.37-9.668,1.589
		c-2.505,0.896-4.191,1.784-5.078,2.682v34.758c5.313,3.334,10.03,4.884,14.143,4.64C31.755,79.312,36.112,72.244,36.112,58.667z
		 M46.356,59.271c0,7.397-1.734,13.539-5.224,18.421c-3.89,5.526-9.278,8.373-16.17,8.529c-5.195,0.166-10.546-1.462-16.054-4.873
		v31.59L0,109.759V39.641c1.462-1.793,3.343-3.333,5.624-4.639c5.302-3.091,11.745-4.681,19.328-4.758l0.127,0.127
		c6.93-0.088,12.271,2.759,16.023,8.527C44.602,44.192,46.356,50.977,46.356,59.271z"/>
	<path id="path48" fill="#646464" d="M100.804,80.004c0,9.922-0.993,16.793-2.981,20.614c-1.998,3.819-5.799,6.871-11.414,9.145
		c-4.553,1.793-9.476,2.77-14.758,2.934l-1.472-5.613c5.371-0.729,9.152-1.462,11.347-2.192c4.317-1.463,7.28-3.703,8.907-6.707
		c1.308-2.444,1.948-7.113,1.948-14.022V81.84c-6.091,2.769-12.475,4.144-19.15,4.144c-4.388,0-8.257-1.375-11.591-4.144
		c-3.741-3.013-5.612-6.832-5.612-11.463V33.296l8.908-3.052v37.32c0,3.985,1.286,7.058,3.858,9.211
		c2.573,2.152,5.907,3.188,9.991,3.107c4.084-0.088,8.459-1.666,13.109-4.756v-43.54h8.907L100.804,80.004L100.804,80.004z"/>
	<path id="path50" fill="#646464" d="M135.583,85.733c-1.063,0.088-2.037,0.127-2.936,0.127c-5.039,0-8.968-1.197-11.771-3.604
		c-2.801-2.407-4.201-5.731-4.201-9.973V37.193h-6.104V31.59h6.104V16.705l8.896-3.168V31.59h10.012v5.604h-10.012V72.04
		c0,3.344,0.896,5.713,2.688,7.098c1.541,1.141,3.985,1.793,7.32,1.959v4.637L135.583,85.733L135.583,85.733z"/>
	<path id="path52" fill="#646464" d="M189.521,85.004h-8.906V50.615c0-3.499-0.82-6.512-2.447-9.024
		c-1.881-2.848-4.494-4.271-7.846-4.271c-4.083,0-9.191,2.154-15.324,6.463v41.222h-8.908V2.807L154.999,0v37.438
		c5.691-4.143,11.912-6.219,18.666-6.219c4.719,0,8.539,1.589,11.463,4.757c2.934,3.167,4.395,7.115,4.395,11.833V85.004
		L189.521,85.004z"/>
	<path id="path54" fill="#646464" d="M236.875,57.264c0-5.595-1.064-10.215-3.178-13.87c-2.518-4.454-6.426-6.804-11.707-7.047
		c-9.77,0.564-14.643,7.563-14.643,20.977c0,6.149,1.018,11.286,3.064,15.409c2.607,5.254,6.525,7.848,11.754,7.76
		C231.971,80.412,236.875,72.674,236.875,57.264z M246.631,57.321c0,7.965-2.037,14.593-6.102,19.885
		c-4.477,5.928-10.652,8.898-18.539,8.898c-7.816,0-13.908-2.975-18.307-8.898c-3.984-5.292-5.975-11.92-5.975-19.885
		c0-7.483,2.15-13.781,6.461-18.908c4.553-5.438,10.537-8.168,17.936-8.168c7.4,0,13.424,2.729,18.064,8.168
		C244.475,43.539,246.631,49.837,246.631,57.321z"/>
	<path id="path56" fill="#646464" d="M297.707,85.004h-8.91V48.667c0-3.986-1.199-7.098-3.596-9.339
		c-2.398-2.231-5.598-3.313-9.582-3.228c-4.23,0.078-8.258,1.463-12.076,4.144v44.76h-8.908v-45.86
		c5.127-3.731,9.844-6.17,14.152-7.31c4.063-1.063,7.648-1.59,10.738-1.59c2.115,0,4.105,0.204,5.979,0.613
		c3.498,0.811,6.344,2.312,8.537,4.514c2.445,2.438,3.666,5.359,3.666,8.781V85.004L297.707,85.004z"/>
	<path id="text3004" fill="#646464" d="M315.053,23.646h1.564V13.85h3.697v-1.168h-8.963v1.168h3.699v9.796 M321.701,23.646h1.336
		v-8.946l2.895,8.945h1.486l3.018-8.916v8.917h1.455V12.684h-1.926l-3.297,9.394l-2.814-9.394h-2.15v10.962"/>
</g>
</svg>
