<svg xmlns="http://www.w3.org/2000/svg" width="40" height="40" viewBox="0 0 40 40"><title>github-icon-40px-50op</title><path d="M20,.49a20,20,0,0,0-6.33,39c1,.19,1.37-.43,1.37-1s0-1.73,0-3.4c-5.56,1.2-6.73-2.68-6.73-2.68A5.26,5.26,0,0,0,6.07,29.5c-1.81-1.24.14-1.22.14-1.22a4.24,4.24,0,0,1,3.07,2.06C11.06,33.4,14,32.52,15.1,32a4.22,4.22,0,0,1,1.27-2.68c-4.45-.5-9.11-2.22-9.11-9.88a7.77,7.77,0,0,1,2.05-5.37,7.21,7.21,0,0,1,.2-5.29s1.68-.54,5.5,2.05a19,19,0,0,1,10,0c3.82-2.59,5.5-2.05,5.5-2.05a7.21,7.21,0,0,1,.2,5.29,7.72,7.72,0,0,1,2.05,5.37c0,7.68-4.67,9.37-9.13,9.87A4.75,4.75,0,0,1,25,33c0,2.67,0,4.83,0,5.49s.36,1.15,1.37,1A20,20,0,0,0,20,.49Z" fill="#181616" fill-rule="evenodd" opacity="0.5"/></svg>