<svg xmlns="http://www.w3.org/2000/svg" viewBox="0 0 40 40"><path d="M20 .49a20 20 0 00-6.33 39c1 .19 1.37-.43 1.37-1v-3.4c-5.56 1.2-6.73-2.68-6.73-2.68a5.26 5.26 0 00-2.24-2.91c-1.81-1.24.14-1.22.14-1.22a4.24 4.24 0 013.07 2.06C11.06 33.4 14 32.52 15.1 32a4.22 4.22 0 011.27-2.68c-4.45-.5-9.11-2.22-9.11-9.88a7.77 7.77 0 012.05-5.37 7.21 7.21 0 01.2-5.29s1.68-.54 5.5 2.05a19 19 0 0110 0c3.82-2.59 5.5-2.05 5.5-2.05a7.21 7.21 0 01.2 5.29 7.72 7.72 0 012.05 5.37c0 7.68-4.67 9.37-9.13 9.87A4.75 4.75 0 0125 33v5.49c0 .66.36 1.15 1.37 1A20 20 0 0020 .49z" fill="#002447" fill-rule="evenodd"/></svg>