<svg xmlns="http://www.w3.org/2000/svg" viewBox="0 0 40 40"><path d="M20 40H3a3 3 0 01-3-2.46 3.37 3.37 0 010-.44V2.92A2.84 2.84 0 012.88 0H37a2.93 2.93 0 012.86 2 3.41 3.41 0 01.12.84Q40 20 40 37.1a2.83 2.83 0 01-2.86 2.9h-6.4zm1.37-22.41v-2.17c0-.34-.09-.46-.44-.45h-4.91c-.39 0-.47.12-.47.49v18.23c0 .37.1.49.48.49h5.09c.38 0 .48-.12.48-.49v-9.17a11 11 0 01.15-1.9 3 3 0 012.21-2.68 5 5 0 011.29-.12 2.45 2.45 0 012.64 2.1 10.73 10.73 0 01.25 2.33v9.43c0 .37.1.5.49.5h5.09c.36 0 .46-.12.46-.47V23.56a17.73 17.73 0 00-.38-4.11 6 6 0 00-2.52-3.93 6.59 6.59 0 00-2.92-.95 7.84 7.84 0 00-3.75.31 6.45 6.45 0 00-3.28 2.69zm-15.47 7v9.13c0 .37.12.46.47.46h5.13c.33 0 .46-.09.45-.45V15.4c0-.36-.13-.43-.45-.43h-5c-.54 0-.54 0-.54.52zm3-12.18a3.47 3.47 0 10-3.49-3.49 3.45 3.45 0 003.45 3.47z" fill="#002447"/></svg>