<svg xmlns="http://www.w3.org/2000/svg" width="40" height="40" viewBox="0 0 40 40"><title>linkedin-icon-40px-50op</title><path d="M20,40c-5.65,0-11.3,0-17,0a3,3,0,0,1-3-2.46,3.37,3.37,0,0,1,0-.44V2.92A2.84,2.84,0,0,1,2.88,0C4.69,0,6.49,0,8.3,0Q22.66,0,37,0a2.93,2.93,0,0,1,2.86,2,3.41,3.41,0,0,1,.12.84Q40,20,40,37.1A2.83,2.83,0,0,1,37.14,40c-2.13,0-4.26,0-6.4,0Zm1.37-22.41c0-.8,0-1.49,0-2.17,0-.34-.09-.46-.44-.45-1.64,0-3.27,0-4.91,0-.39,0-.47.12-.47.49q0,9.11,0,18.23c0,.37.1.49.48.49,1.7,0,3.39,0,5.09,0,.38,0,.48-.12.48-.49,0-3.06,0-6.12,0-9.17a11,11,0,0,1,.15-1.9,3,3,0,0,1,2.21-2.68,5,5,0,0,1,1.29-.12,2.45,2.45,0,0,1,2.64,2.1,10.73,10.73,0,0,1,.25,2.33c0,3.14,0,6.29,0,9.43,0,.37.1.5.49.5,1.69,0,3.39,0,5.09,0,.36,0,.46-.12.46-.47,0-3.38,0-6.77,0-10.15a17.73,17.73,0,0,0-.38-4.11,6,6,0,0,0-2.52-3.93,6.59,6.59,0,0,0-2.92-.95,7.84,7.84,0,0,0-3.75.31A6.45,6.45,0,0,0,21.33,17.57Zm-15.47,7c0,3,0,6.08,0,9.13,0,.37.12.46.47.46h5.13c.33,0,.46-.09.45-.45q0-9.16,0-18.33c0-.36-.13-.43-.45-.43h-5c-.54,0-.54,0-.54.52Zm3-12.18A3.47,3.47,0,1,0,5.41,8.92,3.45,3.45,0,0,0,8.86,12.39Z" opacity="0.5"/></svg>