<svg xmlns="http://www.w3.org/2000/svg" width="40" height="40" viewBox="0 0 40 40"><title>twitter-icon-40px-50op</title><path d="M40.08,20a20,20,0,1,1-20-20A20,20,0,0,1,40.08,20ZM16.42,30.55A13.63,13.63,0,0,0,30.14,16.83c0-.21,0-.42,0-.62a9.88,9.88,0,0,0,2.41-2.5,9.79,9.79,0,0,1-2.77.76,4.82,4.82,0,0,0,2.12-2.67A9.76,9.76,0,0,1,28.83,13a4.82,4.82,0,0,0-8.34,3.3,4.42,4.42,0,0,0,.13,1.1,13.68,13.68,0,0,1-9.94-5,4.82,4.82,0,0,0,1.5,6.43,4.74,4.74,0,0,1-2.18-.6v.06A4.83,4.83,0,0,0,13.87,23a4.81,4.81,0,0,1-1.27.17,4.6,4.6,0,0,1-.91-.09,4.81,4.81,0,0,0,4.5,3.35,9.69,9.69,0,0,1-6,2.06,8.77,8.77,0,0,1-1.15-.07,13.43,13.43,0,0,0,7.37,2.18" opacity="0.5"/></svg>