<svg xmlns="http://www.w3.org/2000/svg" viewBox="0 0 40 40"><path d="M40.08 20a20 20 0 11-20-20 20 20 0 0120 20zM16.42 30.55a13.63 13.63 0 0013.72-13.72v-.62a9.88 9.88 0 002.41-2.5 9.79 9.79 0 01-2.77.76 4.82 4.82 0 002.12-2.67 9.76 9.76 0 01-3.07 1.2 4.82 4.82 0 00-8.34 3.3 4.42 4.42 0 00.13 1.1 13.68 13.68 0 01-9.94-5 4.82 4.82 0 001.5 6.43 4.74 4.74 0 01-2.18-.6v.06A4.83 4.83 0 0013.87 23a4.81 4.81 0 01-1.27.17 4.6 4.6 0 01-.91-.09 4.81 4.81 0 004.5 3.35 9.69 9.69 0 01-6 2.06 8.77 8.77 0 01-1.15-.07 13.43 13.43 0 007.37 2.18" fill="#002447"/></svg>