<svg xmlns="http://www.w3.org/2000/svg" width="170.06" height="40" viewBox="0 0 170.06 40"><title>twitter-icon-40px-50op</title><path d="M20,.49a20,20,0,0,0-6.33,39c1,.19,1.37-.43,1.37-1s0-1.73,0-3.4c-5.56,1.2-6.73-2.68-6.73-2.68A5.26,5.26,0,0,0,6.07,29.5c-1.81-1.24.14-1.22.14-1.22a4.24,4.24,0,0,1,3.07,2.06C11.06,33.4,14,32.52,15.1,32a4.22,4.22,0,0,1,1.27-2.68c-4.45-.5-9.11-2.22-9.11-9.88a7.77,7.77,0,0,1,2.05-5.37,7.21,7.21,0,0,1,.2-5.29s1.68-.54,5.5,2.05a19,19,0,0,1,10,0c3.82-2.59,5.5-2.05,5.5-2.05a7.21,7.21,0,0,1,.2,5.29,7.72,7.72,0,0,1,2.05,5.37c0,7.68-4.67,9.37-9.13,9.87A4.75,4.75,0,0,1,25,33c0,2.67,0,4.83,0,5.49s.36,1.15,1.37,1A20,20,0,0,0,20,.49Z" transform="translate(-0.02)" fill="#181616" fill-rule="evenodd" opacity="0.5"/><path d="M170.08,20a20,20,0,1,1-20-20A20,20,0,0,1,170.08,20ZM146.42,30.55a13.63,13.63,0,0,0,13.72-13.72c0-.21,0-.42,0-.62a9.88,9.88,0,0,0,2.41-2.5,9.79,9.79,0,0,1-2.77.76,4.82,4.82,0,0,0,2.12-2.67A9.76,9.76,0,0,1,158.83,13a4.82,4.82,0,0,0-8.34,3.3,4.42,4.42,0,0,0,.13,1.1,13.68,13.68,0,0,1-9.94-5,4.82,4.82,0,0,0,1.5,6.43,4.74,4.74,0,0,1-2.18-.6v.06A4.83,4.83,0,0,0,143.87,23a4.81,4.81,0,0,1-1.27.17,4.6,4.6,0,0,1-.91-.09,4.81,4.81,0,0,0,4.5,3.35,9.69,9.69,0,0,1-6,2.06,8.77,8.77,0,0,1-1.15-.07,13.43,13.43,0,0,0,7.37,2.18" transform="translate(-0.02)" opacity="0.5"/><path d="M85,40c-5.65,0-11.3,0-16.95,0a3,3,0,0,1-3-2.46,3.37,3.37,0,0,1,0-.44V2.92A2.84,2.84,0,0,1,67.88,0c1.81,0,3.61,0,5.42,0Q87.66,0,102,0a2.93,2.93,0,0,1,2.86,2,3.41,3.41,0,0,1,.12.84Q105,20,105,37.1A2.83,2.83,0,0,1,102.14,40c-2.13,0-4.26,0-6.4,0Zm1.37-22.41c0-.8,0-1.49,0-2.17,0-.34-.09-.46-.44-.45-1.64,0-3.27,0-4.91,0-.39,0-.47.12-.47.49q0,9.11,0,18.23c0,.37.1.49.48.49,1.7,0,3.39,0,5.09,0,.38,0,.48-.12.48-.49,0-3.06,0-6.12,0-9.17a11,11,0,0,1,.15-1.9,3,3,0,0,1,2.21-2.68,5,5,0,0,1,1.29-.12,2.45,2.45,0,0,1,2.64,2.1,10.73,10.73,0,0,1,.25,2.33c0,3.14,0,6.29,0,9.43,0,.37.1.5.49.5,1.69,0,3.39,0,5.09,0,.36,0,.46-.12.46-.47,0-3.38,0-6.77,0-10.15a17.73,17.73,0,0,0-.38-4.11,6,6,0,0,0-2.52-3.93,6.59,6.59,0,0,0-2.92-.95,7.84,7.84,0,0,0-3.75.31A6.45,6.45,0,0,0,86.33,17.57Zm-15.47,7c0,3,0,6.08,0,9.13,0,.37.12.46.47.46h5.13c.33,0,.46-.09.45-.45q0-9.16,0-18.33c0-.36-.13-.43-.45-.43h-5c-.54,0-.54,0-.54.52Zm3-12.18a3.47,3.47,0,1,0-3.45-3.47A3.45,3.45,0,0,0,73.86,12.39Z" transform="translate(-0.02)" opacity="0.5"/></svg>