<?xml version="1.0" encoding="utf-8"?>
<!-- Generator: Adobe Illustrator 14.0.0, SVG Export Plug-In . SVG Version: 6.00 Build 43363)  -->
<!DOCTYPE svg PUBLIC "-//W3C//DTD SVG 1.1//EN" "http://www.w3.org/Graphics/SVG/1.1/DTD/svg11.dtd">
<svg version="1.1"
	 id="svg2" sodipodi:version="0.32" inkscape:version="0.43" sodipodi:docbase="/home/sdeibel" sodipodi:docname="logo-python-generic.svg" xmlns:dc="http://purl.org/dc/elements/1.1/" xmlns:cc="http://web.resource.org/cc/" xmlns:rdf="http://www.w3.org/1999/02/22-rdf-syntax-ns#" xmlns:svg="http://www.w3.org/2000/svg" xmlns:sodipodi="http://inkscape.sourceforge.net/DTD/sodipodi-0.dtd" xmlns:inkscape="http://www.inkscape.org/namespaces/inkscape"
	 xmlns="http://www.w3.org/2000/svg" xmlns:xlink="http://www.w3.org/1999/xlink" x="0px" y="0px" width="474.8px"
	 height="137.803px" viewBox="0 0 474.8 137.803" enable-background="new 0 0 474.8 137.803" xml:space="preserve">
<sodipodi:namedview  id="base" inkscape:current-layer="svg2" inkscape:window-y="0" inkscape:window-x="0" inkscape:window-width="791" inkscape:pageopacity="0.0" inkscape:pageshadow="2" inkscape:window-height="543" inkscape:cy="71.887497" inkscape:cx="243.02499" inkscape:zoom="1.4340089" pagecolor="#ffffff" bordercolor="#666666" borderopacity="1.0">
	</sodipodi:namedview>
<g id="g2303">
	<path id="path46" fill="#646464" d="M179.022,58.667c0-14.563-4.152-22.038-12.457-22.447c-3.304-0.156-6.531,0.37-9.669,1.589
		c-2.505,0.896-4.191,1.784-5.078,2.681v34.758c5.313,3.334,10.03,4.884,14.143,4.64C174.665,79.311,179.022,72.244,179.022,58.667z
		 M189.266,59.271c0,7.397-1.735,13.538-5.224,18.422c-3.889,5.526-9.279,8.373-16.17,8.528c-5.195,0.166-10.546-1.461-16.054-4.873
		v31.591l-8.909-3.179V39.641c1.462-1.793,3.343-3.333,5.624-4.639c5.302-3.091,11.745-4.68,19.329-4.758l0.126,0.127
		c6.93-0.088,12.272,2.759,16.024,8.528C187.512,44.192,189.266,50.977,189.266,59.271z"/>
	<path id="path48" fill="#646464" d="M243.714,80.004c0,9.922-0.994,16.793-2.981,20.614c-1.998,3.82-5.8,6.871-11.415,9.144
		c-4.552,1.793-9.475,2.769-14.757,2.934l-1.472-5.614c5.371-0.729,9.152-1.462,11.346-2.192c4.318-1.463,7.281-3.703,8.908-6.707
		c1.308-2.445,1.948-7.114,1.948-14.024v-2.319c-6.091,2.769-12.475,4.143-19.151,4.143c-4.387,0-8.256-1.374-11.59-4.143
		c-3.742-3.013-5.613-6.832-5.613-11.463V33.296l8.908-3.052v37.321c0,3.985,1.287,7.057,3.859,9.211
		c2.574,2.153,5.907,3.188,9.991,3.108c4.084-0.088,8.46-1.666,13.11-4.756v-43.54h8.908L243.714,80.004L243.714,80.004z"/>
	<path id="path50" fill="#646464" d="M278.491,85.734c-1.063,0.088-2.037,0.126-2.934,0.126c-5.039,0-8.967-1.198-11.773-3.604
		c-2.799-2.408-4.201-5.731-4.201-9.973v-35.09h-6.103V31.59h6.103V16.705l8.898-3.168V31.59h10.01v5.604h-10.01v34.846
		c0,3.344,0.896,5.713,2.689,7.098c1.541,1.14,3.986,1.793,7.32,1.959V85.734L278.491,85.734z"/>
	<path id="path52" fill="#646464" d="M332.432,85.004h-8.908V50.615c0-3.499-0.82-6.511-2.447-9.024
		c-1.881-2.848-4.494-4.271-7.846-4.271c-4.084,0-9.191,2.154-15.324,6.462v41.222h-8.908V2.807L297.907,0v37.438
		c5.693-4.143,11.912-6.219,18.666-6.219c4.719,0,8.539,1.589,11.463,4.757c2.934,3.167,4.396,7.115,4.396,11.833V85.004
		L332.432,85.004z"/>
	<path id="path54" fill="#646464" d="M379.784,57.264c0-5.595-1.064-10.215-3.178-13.87c-2.516-4.454-6.424-6.804-11.707-7.047
		c-9.768,0.564-14.641,7.563-14.641,20.976c0,6.15,1.016,11.287,3.063,15.41c2.611,5.254,6.529,7.847,11.754,7.759
		C374.881,80.412,379.784,72.674,379.784,57.264z M389.54,57.321c0,7.964-2.037,14.592-6.102,19.884
		c-4.475,5.928-10.652,8.899-18.539,8.899c-7.816,0-13.908-2.974-18.305-8.899c-3.986-5.292-5.975-11.92-5.975-19.884
		c0-7.484,2.152-13.782,6.461-18.909c4.553-5.438,10.537-8.168,17.936-8.168s13.422,2.729,18.063,8.168
		C387.385,43.539,389.54,49.837,389.54,57.321z"/>
	<path id="path56" fill="#646464" d="M440.616,85.004h-8.91V48.667c0-3.986-1.199-7.097-3.596-9.339
		c-2.398-2.231-5.596-3.313-9.582-3.227c-4.23,0.078-8.256,1.463-12.076,4.143v44.76h-8.908v-45.86
		c5.127-3.732,9.844-6.17,14.152-7.31c4.063-1.063,7.65-1.59,10.74-1.59c2.115,0,4.104,0.204,5.977,0.614
		c3.498,0.81,6.344,2.311,8.537,4.513c2.447,2.438,3.666,5.36,3.666,8.782V85.004L440.616,85.004z"/>
	
		<linearGradient id="path1948_1_" gradientUnits="userSpaceOnUse" x1="564.0122" y1="1203.6973" x2="673.0288" y2="1297.4913" gradientTransform="matrix(0.5625 0 0 0.568 -319.9823 -677.3682)">
		<stop  offset="0" style="stop-color:#5A9FD4"/>
		<stop  offset="1" style="stop-color:#306998"/>
	</linearGradient>
	<path id="path1948" fill="url(#path1948_1_)" d="M54.919,3.136c-4.584,0.021-8.961,0.412-12.813,1.094
		C30.76,6.234,28.7,10.43,28.7,18.168v10.219h26.813v3.406H28.701H18.638c-7.792,0-14.616,4.684-16.75,13.594
		c-2.462,10.213-2.571,16.586,0,27.25c1.906,7.938,6.458,13.594,14.25,13.594h9.219V73.98c0-8.85,7.657-16.656,16.75-16.656h26.781
		c7.455,0,13.406-6.138,13.406-13.625V18.167c0-7.267-6.13-12.726-13.406-13.938C64.282,3.463,59.503,3.113,54.919,3.136z
		 M40.419,11.354c2.77,0,5.031,2.299,5.031,5.125c0,2.816-2.262,5.094-5.031,5.094c-2.78,0-5.031-2.276-5.031-5.094
		C35.388,13.652,37.639,11.354,40.419,11.354z"/>
	
		<linearGradient id="path1950_1_" gradientUnits="userSpaceOnUse" x1="715.1851" y1="1354.2627" x2="676.2552" y2="1299.1838" gradientTransform="matrix(0.5625 0 0 0.568 -319.9823 -677.3682)">
		<stop  offset="0" style="stop-color:#FFD43B"/>
		<stop  offset="1" style="stop-color:#FFE873"/>
	</linearGradient>
	<path id="path1950" fill="url(#path1950_1_)" d="M85.638,31.792v11.905c0,9.231-7.826,17-16.75,17H42.107
		c-7.336,0-13.406,6.277-13.406,13.625v25.531c0,7.267,6.318,11.541,13.406,13.625c8.487,2.496,16.626,2.947,26.781,0
		c6.75-1.954,13.406-5.889,13.406-13.625V89.635H55.513v-3.405h26.781H95.7c7.792,0,10.696-5.437,13.406-13.595
		c2.799-8.397,2.68-16.476,0-27.249c-1.926-7.757-5.604-13.594-13.406-13.594H85.638z M70.576,96.447
		c2.779,0,5.031,2.277,5.031,5.094c0,2.826-2.252,5.125-5.031,5.125c-2.77,0-5.031-2.299-5.031-5.125
		C65.544,98.725,67.806,96.447,70.576,96.447z"/>
	<path id="text3004" fill="#646464" d="M457.963,23.646h1.563v-9.796h3.701v-1.168h-8.963v1.168h3.699V23.646 M464.61,23.646h1.336
		v-8.947l2.895,8.946h1.486l3.018-8.916v8.917h1.455V12.684h-1.926l-3.297,9.393l-2.814-9.393h-2.152V23.646"/>
	
		<radialGradient id="path1894_1_" cx="-2467.2271" cy="309.2119" r="29.0383" gradientTransform="matrix(1.749057e-008 -0.2399 1.0547 3.791546e-007 -270.3083 -461.1122)" gradientUnits="userSpaceOnUse">
		<stop  offset="0" style="stop-color:#B8B8B8;stop-opacity:0.498"/>
		<stop  offset="1" style="stop-color:#7F7F7F;stop-opacity:0"/>
	</radialGradient>
	<path id="path1894" opacity="0.4438" fill="url(#path1894_1_)" enable-background="new    " d="M91.748,130.836
		c0,3.848-16.086,6.967-35.931,6.967c-19.845,0-35.931-3.119-35.931-6.967c0-3.849,16.087-6.969,35.931-6.969
		C75.661,123.867,91.748,126.987,91.748,130.836L91.748,130.836z"/>
</g>
</svg>
