<?xml version="1.0" standalone="no"?>
<!DOCTYPE svg PUBLIC "-//W3C//DTD SVG 20010904//EN"
 "http://www.w3.org/TR/2001/REC-SVG-20010904/DTD/svg10.dtd">
<svg version="1.0" xmlns="http://www.w3.org/2000/svg"
 width="700.000000pt" height="700.000000pt" viewBox="0 0 700.000000 700.000000"
 preserveAspectRatio="xMidYMid meet">
<metadata>
Created by potrace 1.11, written by Peter Selinger 2001-2013
</metadata>
<g transform="translate(0.000000,700.000000) scale(0.100000,-0.100000)"
fill="#000000" stroke="none">
<path d="M1862 6808 c61 -106 174 -300 250 -431 76 -131 138 -243 138 -248 0
-5 5 -9 10 -9 6 0 10 -4 10 -9 0 -6 63 -119 141 -253 78 -134 155 -268 171
-298 17 -30 38 -66 48 -80 9 -14 31 -52 50 -85 39 -71 45 -82 140 -245 40 -69
81 -141 92 -160 11 -19 54 -93 96 -165 41 -71 83 -143 92 -160 129 -225 175
-301 183 -307 6 -3 -679 -5 -1521 -5 -843 1 -1532 -2 -1532 -6 0 -5 31 -62 70
-128 38 -66 70 -124 70 -130 0 -5 5 -9 10 -9 6 0 10 -4 10 -10 0 -5 22 -47 49
-92 27 -46 58 -99 68 -118 11 -19 80 -138 153 -265 73 -126 141 -243 150 -260
9 -16 59 -102 110 -190 51 -88 104 -180 118 -205 14 -25 71 -124 127 -220 56
-96 120 -206 142 -245 22 -38 82 -142 133 -230 51 -88 104 -180 118 -205 14
-25 33 -57 43 -72 11 -14 19 -29 19 -33 0 -4 24 -48 54 -99 84 -143 191 -326
222 -381 31 -55 219 -380 234 -405 38 -64 90 -153 90 -155 0 -2 19 -36 43 -77
24 -40 46 -80 50 -88 4 -8 16 -28 26 -45 11 -16 28 -46 39 -65 29 -52 56 -99
89 -156 17 -27 41 -70 55 -95 32 -56 210 -363 212 -366 1 -2 40 64 86 145 46
81 91 158 100 172 10 14 30 50 47 80 17 30 86 152 155 270 69 118 187 323 263
455 75 132 148 257 161 277 13 21 24 39 24 42 0 4 182 319 200 346 6 8 14 24
20 35 5 11 23 43 39 70 16 28 45 77 64 110 54 95 71 124 127 220 29 50 66 115
83 145 16 30 36 62 43 71 8 8 14 18 14 22 0 4 22 44 49 89 26 46 92 160 146
253 54 94 148 256 208 360 60 105 118 206 129 225 32 54 112 193 125 215 7 11
15 27 19 35 4 8 25 43 46 78 21 34 38 64 38 66 0 2 17 33 38 67 22 35 50 84
64 109 14 25 83 144 153 265 70 121 136 236 147 255 11 19 28 50 39 69 12 19
79 136 150 260 71 124 134 233 139 241 11 18 98 169 252 435 64 110 173 299
243 420 70 121 186 323 259 448 72 125 139 242 150 260 126 217 216 376 216
381 0 3 -1129 6 -2509 6 l-2510 0 111 -192z"/>
</g>
</svg>
