<?xml version="1.0" encoding="utf-8"?>
<!-- Generator: Adobe Illustrator 14.0.0, SVG Export Plug-In . SVG Version: 6.00 Build 43363)  -->
<!DOCTYPE svg PUBLIC "-//W3C//DTD SVG 1.1//EN" "http://www.w3.org/Graphics/SVG/1.1/DTD/svg11.dtd">
<svg version="1.1"
	 id="svg3476" inkscape:version="0.91 r13725" sodipodi:docname="CSS3.svg" xmlns:dc="http://purl.org/dc/elements/1.1/" xmlns:cc="http://creativecommons.org/ns#" xmlns:svg="http://www.w3.org/2000/svg" xmlns:sodipodi="http://sodipodi.sourceforge.net/DTD/sodipodi-0.dtd" xmlns:rdf="http://www.w3.org/1999/02/22-rdf-syntax-ns#" xmlns:inkscape="http://www.inkscape.org/namespaces/inkscape"
	 xmlns="http://www.w3.org/2000/svg" xmlns:xlink="http://www.w3.org/1999/xlink" x="0px" y="0px" width="300px" height="340.23px"
	 viewBox="0 0 300 340.23" enable-background="new 0 0 300 340.23" xml:space="preserve">
<sodipodi:namedview  id="base" fit-margin-right="0" fit-margin-bottom="0" inkscape:window-width="1366" inkscape:window-height="704" inkscape:window-x="0" inkscape:window-y="27" inkscape:pageopacity="0.0" inkscape:pageshadow="2" pagecolor="#ffffff" fit-margin-left="0" borderopacity="1.0" inkscape:cx="181.367" showgrid="false" inkscape:zoom="0.35" inkscape:cy="256" fit-margin-top="0" bordercolor="#666666" inkscape:window-maximized="1" inkscape:document-units="px" inkscape:current-layer="layer1">
	</sodipodi:namedview>
<g>
	<polygon id="polygon2989" fill="#264DE4" points="300,0 272.67,306.176 149.816,340.231 27.303,306.223 0,0 	"/>
	<polygon id="polygon2991" fill="#2965F1" points="249.271,286.68 272.627,25.038 150,25.038 150,314.198 	"/>
	<polygon id="polygon2993" fill="#EBEBEB" points="62.59,138.61 65.955,176.166 150,176.166 150,138.61 	"/>
	<polygon id="polygon2995" fill="#EBEBEB" points="150,62.596 149.869,62.596 55.825,62.596 59.239,100.153 150,100.153 	"/>
	<polygon id="polygon2997" fill="#EBEBEB" points="150,275.225 150,236.151 149.836,236.194 108.008,224.901 105.333,194.946 
		85.01,194.946 67.633,194.946 72.895,253.916 149.827,275.274 	"/>
	<polygon id="polygon3005" fill="#FFFFFF" points="196.117,176.166 191.758,224.875 149.869,236.184 149.869,275.256 
		226.863,253.916 227.428,247.571 236.254,148.696 237.17,138.61 243.951,62.596 149.869,62.596 149.869,100.153 202.791,100.153 
		199.375,138.61 149.869,138.61 149.869,176.166 	"/>
</g>
</svg>
