<?xml version="1.0" encoding="utf-8"?>
<!-- Generator: Adobe Illustrator 14.0.0, SVG Export Plug-In . SVG Version: 6.00 Build 43363)  -->
<!DOCTYPE svg PUBLIC "-//W3C//DTD SVG 1.1//EN" "http://www.w3.org/Graphics/SVG/1.1/DTD/svg11.dtd">
<svg version="1.1" id="Layer_1" xmlns="http://www.w3.org/2000/svg" xmlns:xlink="http://www.w3.org/1999/xlink" x="0px" y="0px"
	 width="300px" height="340.232px" viewBox="0 0 300 340.232" enable-background="new 0 0 300 340.232" xml:space="preserve">
<title>HTML5 Logo</title>
<g>
	<polygon fill="#E44D26" points="27.302,306.221 0,0 300,0 272.669,306.174 149.816,340.233 	"/>
	<polygon fill="#F16529" points="150,314.199 249.271,286.677 272.627,25.038 150,25.038 	"/>
	<polygon fill="#EBEBEB" points="150,138.611 100.303,138.611 96.87,100.153 150,100.153 150,62.594 149.87,62.594 55.825,62.594 
		56.725,72.671 65.955,176.167 150,176.167 	"/>
	<polygon fill="#EBEBEB" points="150,236.151 149.835,236.195 108.008,224.9 105.334,194.946 85.01,194.946 67.633,194.946 
		72.895,253.916 149.827,275.273 150,275.225 	"/>
	<polygon fill="#FFFFFF" points="149.87,138.611 149.87,176.167 196.117,176.167 191.758,224.876 149.87,236.181 149.87,275.255 
		226.863,253.916 227.43,247.57 236.254,148.696 237.171,138.611 227.05,138.611 	"/>
	<polygon fill="#FFFFFF" points="149.87,62.594 149.87,85.922 149.87,100.061 149.87,100.153 240.467,100.153 240.467,100.153 
		240.588,100.153 241.341,91.711 243.053,72.671 243.95,62.594 	"/>
</g>
</svg>
