<?xml version="1.0" encoding="utf-8"?>
<!-- Generator: Adobe Illustrator 14.0.0, SVG Export Plug-In . SVG Version: 6.00 Build 43363)  -->
<!DOCTYPE svg PUBLIC "-//W3C//DTD SVG 1.1//EN" "http://www.w3.org/Graphics/SVG/1.1/DTD/svg11.dtd">
<svg version="1.1" id="Layer_1" xmlns="http://www.w3.org/2000/svg" xmlns:xlink="http://www.w3.org/1999/xlink" x="0px" y="0px"
	 width="300px" height="340px" viewBox="0 -20 300 340" enable-background="new 0 -20 300 340" xml:space="preserve">
<g>
	<rect y="-20" fill="#F7DF1E" width="300" height="300"/>
	<path d="M201.523,214.376c6.043,9.866,13.904,17.119,27.811,17.119c11.68,0,19.143-5.838,19.143-13.905
		c0-9.666-7.667-13.09-20.523-18.714l-7.048-3.022c-20.342-8.668-33.856-19.524-33.856-42.478c0-21.144,16.109-37.237,41.286-37.237
		c17.924,0,30.81,6.237,40.095,22.57l-21.951,14.096c-4.834-8.666-10.049-12.08-18.144-12.08c-8.258,0-13.491,5.237-13.491,12.08
		c0,8.457,5.238,11.881,17.333,17.119l7.048,3.02c23.952,10.271,37.478,20.742,37.478,44.285c0,25.382-19.938,39.285-46.714,39.285
		c-26.183,0-43.096-12.476-51.372-28.828L201.523,214.376z M101.938,216.818c4.43,7.856,8.459,14.5,18.144,14.5
		c9.262,0,15.104-3.623,15.104-17.713v-95.858h28.19v96.239c0,29.188-17.114,42.476-42.095,42.476
		c-22.572,0-35.644-11.681-42.291-25.75L101.938,216.818z"/>
</g>
</svg>
