<?xml version="1.0" encoding="utf-8"?>
<!-- Generator: Adobe Illustrator 14.0.0, SVG Export Plug-In . SVG Version: 6.00 Build 43363)  -->
<!DOCTYPE svg PUBLIC "-//W3C//DTD SVG 1.1//EN" "http://www.w3.org/Graphics/SVG/1.1/DTD/svg11.dtd">
<svg version="1.1" id="Layer_2_1_" xmlns="http://www.w3.org/2000/svg" xmlns:xlink="http://www.w3.org/1999/xlink" x="0px" y="0px"
	 width="300px" height="340px" viewBox="0 0 300 340" enable-background="new 0 0 300 340" xml:space="preserve">
<g>
	<path fill="#61DAFB" d="M300,133.611c0-19.873-24.889-38.707-63.045-50.387c8.805-38.893,4.893-69.833-12.354-79.74
		c-3.977-2.322-8.623-3.424-13.697-3.424v13.637c2.813,0,5.074,0.551,6.972,1.59c8.315,4.771,11.924,22.932,9.11,46.291
		c-0.672,5.748-1.772,11.802-3.118,17.978c-11.985-2.935-25.071-5.198-38.83-6.665c-8.255-11.313-16.815-21.586-25.438-30.574
		c19.937-18.529,38.646-28.68,51.365-28.68V0l0,0c-16.814,0-38.83,11.984-61.088,32.775C127.62,12.107,105.606,0.244,88.79,0.244
		v13.637c12.658,0,31.431,10.089,51.366,28.496c-8.562,8.988-17.122,19.201-25.255,30.514c-13.82,1.467-26.906,3.73-38.892,6.727
		c-1.405-6.114-2.445-12.047-3.18-17.732c-2.874-23.359,0.673-41.521,8.928-46.352c1.834-1.102,4.22-1.59,7.032-1.59V0.307l0,0
		c-5.137,0-9.784,1.102-13.82,3.424c-17.182,9.906-21.034,40.787-12.168,79.554C24.767,95.027,0,113.8,0,133.611
		c0,19.875,24.888,38.709,63.045,50.387c-8.806,38.892-4.892,69.834,12.353,79.739c3.975,2.322,8.623,3.425,13.759,3.425
		c16.815,0,38.83-11.984,61.088-32.775c22.259,20.669,44.272,32.531,61.089,32.531c5.137,0,9.783-1.103,13.818-3.425
		c17.184-9.905,21.037-40.788,12.17-79.556C275.234,172.259,300,153.424,300,133.611z M220.383,92.826
		c-2.263,7.888-5.074,16.021-8.255,24.153c-2.507-4.892-5.137-9.784-8.011-14.676c-2.813-4.892-5.811-9.662-8.807-14.31
		C203.995,89.279,212.372,90.867,220.383,92.826z M192.376,157.949c-4.771,8.256-9.661,16.084-14.735,23.36
		c-9.111,0.795-18.346,1.223-27.641,1.223c-9.233,0-18.467-0.428-27.518-1.162c-5.075-7.275-10.029-15.043-14.798-23.235
		c-4.647-8.011-8.867-16.144-12.72-24.337c3.791-8.194,8.072-16.389,12.658-24.398c4.771-8.255,9.662-16.083,14.737-23.359
		c9.11-0.795,18.345-1.223,27.64-1.223c9.233,0,18.467,0.428,27.519,1.162c5.074,7.277,10.027,15.042,14.799,23.237
		c4.646,8.01,8.865,16.144,12.719,24.337C201.182,141.744,196.963,149.939,192.376,157.949z M212.128,150
		c3.302,8.193,6.115,16.389,8.438,24.337c-8.012,1.957-16.449,3.608-25.193,4.894c2.996-4.709,5.992-9.539,8.807-14.492
		C206.991,159.845,209.621,154.893,212.128,150z M150.122,215.246c-5.687-5.871-11.374-12.414-17-19.567
		c5.503,0.245,11.129,0.429,16.816,0.429c5.748,0,11.435-0.123,17-0.429C161.436,202.832,155.748,209.375,150.122,215.246z
		 M104.627,179.23c-8.684-1.285-17.061-2.875-25.071-4.83c2.263-7.891,5.075-16.021,8.256-24.153
		c2.507,4.892,5.136,9.783,8.011,14.676C98.695,169.813,101.63,174.582,104.627,179.23z M149.816,51.977
		c5.687,5.871,11.374,12.414,16.999,19.568c-5.502-0.245-11.129-0.428-16.814-0.428c-5.749,0-11.435,0.121-17,0.428
		C138.503,64.391,144.19,57.848,149.816,51.977z M104.565,87.994c-2.996,4.709-5.993,9.539-8.806,14.492
		c-2.813,4.893-5.442,9.784-7.949,14.676c-3.303-8.193-6.115-16.388-8.438-24.338C87.382,90.93,95.821,89.279,104.565,87.994z
		 M49.226,164.554c-21.647-9.233-35.65-21.341-35.65-30.942c0-9.6,14.003-21.769,35.65-30.94c5.259-2.263,11.007-4.281,16.938-6.177
		c3.485,11.985,8.072,24.461,13.759,37.24c-5.626,12.719-10.15,25.133-13.575,37.057C60.293,168.896,54.545,166.816,49.226,164.554z
		 M82.123,251.937c-8.315-4.77-11.924-22.932-9.111-46.29c0.673-5.748,1.773-11.803,3.119-17.979
		c11.985,2.936,25.071,5.197,38.83,6.666c8.255,11.313,16.816,21.584,25.438,30.574c-19.936,18.526-38.646,28.68-51.366,28.68
		C86.282,253.526,83.958,252.976,82.123,251.937z M227.171,205.34c2.873,23.358-0.673,41.521-8.928,46.353
		c-1.835,1.102-4.22,1.59-7.032,1.59c-12.658,0-31.432-10.09-51.365-28.494c8.562-8.989,17.121-19.201,25.256-30.515
		c13.818-1.469,26.904-3.729,38.891-6.728C225.396,193.723,226.498,199.654,227.171,205.34z M250.713,164.554
		c-5.259,2.263-11.007,4.28-16.938,6.177c-3.485-11.985-8.071-24.46-13.76-37.24c5.627-12.72,10.15-25.134,13.574-37.058
		c6.055,1.896,11.803,3.976,17.186,6.237c21.646,9.232,35.647,21.341,35.647,30.941
		C286.363,143.213,272.359,155.381,250.713,164.554z"/>
	<path fill="#61DAFB" d="M88.729,0.244L88.729,0.244L88.729,0.244z"/>
	<circle fill="#61DAFB" cx="149.938" cy="133.612" r="27.946"/>
	<path fill="#61DAFB" d="M210.844,0.061L210.844,0.061L210.844,0.061z"/>
</g>
</svg>
