<svg xmlns="http://www.w3.org/2000/svg" viewBox="0 0 300 340.23"><path fill="#264de4" d="M300 0l-27.33 306.18-122.85 34.05L27.3 306.22 0 0h300z"/><path fill="#2965f1" d="M249.27 286.68l23.36-261.64H150V314.2l99.27-27.52z"/><path fill="#ebebeb" d="M62.59 138.61l3.36 37.56H150v-37.56H62.59zM150 62.6H55.83l3.41 37.55H150V62.6zM150 275.23v-39.08l-.16.04-41.83-11.29-2.68-29.95h-37.7l5.26 58.97 76.94 21.35.17-.04z"/><path fill="#fff" d="M196.12 176.17l-4.36 48.71-41.89 11.3v39.08l76.99-21.34.57-6.35 8.82-98.87.92-10.09 6.78-76.01h-94.08v37.55h52.92l-3.41 38.46h-49.51v37.56h46.25z"/></svg>