<svg xmlns="http://www.w3.org/2000/svg" viewBox="0 0 300 340"><path d="M300 169.54c-10.91 2.77-17.66.12-23.72-9L233.21 101 227 92.73l-50.3 68c-5.75 8.19-11.77 11.75-22.5 8.85l64.4-86.42-60-78.1c10.32-2 17.44-1 23.77 8.25L227 73.64l45-60c5.77-8.19 12-11.3 22.31-8.28l-23.17 30.83-31.5 41c-3.75 4.69-3.24 7.9.21 12.42zM.08 81.71L5.35 55.8C19.69 4.52 78.47-16.79 119 14.9c23.69 18.63 29.58 45 28.4 74.53H13.88c-2 53.15 36.25 85.23 85 68.86 17.11-5.74 27.18-19.14 32.23-35.9 2.56-8.4 6.79-9.71 14.69-7.31-4 21-13.13 38.47-32.35 49.43-28.71 16.41-69.7 11.1-91.26-11.7C9.35 139.58 4 122.81 1.66 104.9c-.38-3-1.13-5.79-1.69-8.63Q.08 89 .08 81.72zm14-3.56h120.71c-.78-38.44-24.72-65.74-57.43-66-35.9-.28-61.69 26.37-63.24 66z"/></svg>