<svg xmlns="http://www.w3.org/2000/svg" viewBox="0 0 300 340.23"><path d="M150 0a150 150 0 00-47.42 292.33c7.49 1.39 10.25-3.25 10.25-7.21 0-3.58-.14-15.4-.21-27.93-41.73 9.08-50.53-17.7-50.53-17.7-6.82-17.33-16.66-22-16.66-22-13.61-9.31 1-9.11 1-9.11 15.06 1 23 15.46 23 15.46 13.38 22.93 35.09 16.3 43.65 12.46 1.35-9.69 5.24-16.31 9.53-20-33.32-3.8-68.34-16.66-68.34-74.14a58.09 58.09 0 0115.47-40.26c-1.56-3.78-6.69-19 1.46-39.69 0 0 12.59-4 41.25 15.37a142.24 142.24 0 0175.13 0c28.63-19.4 41.21-15.37 41.21-15.37 8.16 20.66 3 35.91 1.47 39.69a58 58 0 0115.44 40.26c0 57.62-35.1 70.3-68.5 74 5.38 4.65 10.18 13.78 10.18 27.77 0 20.07-.18 36.23-.18 41.17 0 4 2.7 8.67 10.31 7.2A150 150 0 00150 0z" fill="#181616" fill-rule="evenodd"/><path d="M56.81 215.37c-.33.74-1.5 1-2.57.45s-1.7-1.5-1.34-2.25 1.49-1 2.58-.47 1.71 1.52 1.33 2.27zM62.89 222.14c-.72.67-2.12.36-3.06-.69s-1.17-2.45-.44-3.12 2.09-.35 3.07.7 1.18 2.44.43 3.11zm-1.43-1.53M68.8 230.78c-.92.64-2.42 0-3.35-1.29s-.92-2.94 0-3.58 2.41-.06 3.36 1.26.91 3 0 3.61zm0 0M76.91 239.13c-.83.91-2.58.66-3.86-.58s-1.68-2.92-.85-3.83 2.59-.65 3.88.58 1.7 2.93.83 3.83zm0 0M88.08 244c-.36 1.17-2 1.7-3.74 1.2s-2.81-1.89-2.47-3.07 2-1.74 3.76-1.21 2.81 1.88 2.45 3.08zm0 0M100.36 244.87c0 1.24-1.4 2.27-3.18 2.29s-3.25-1-3.27-2.18 1.41-2.26 3.2-2.3 3.25 1 3.25 2.19zm0 0M111.78 242.93c.22 1.21-1 2.44-2.79 2.77s-3.36-.42-3.58-1.62 1-2.47 2.79-2.79 3.36.41 3.58 1.64zm0 0" fill="#181616"/></svg>