<svg xmlns="http://www.w3.org/2000/svg" viewBox="0 0 300 340.23"><path fill="#e44d26" d="M27.3 306.22L0 0h300l-27.33 306.17-122.85 34.06L27.3 306.22z"/><path fill="#f16529" d="M150 314.2l99.27-27.52 23.36-261.64H150V314.2z"/><path fill="#ebebeb" d="M150 138.61h-49.7l-3.43-38.46H150V62.59H55.83l.9 10.08 9.22 103.5H150v-37.56zM150 236.15l-.16.04-41.83-11.29-2.68-29.95h-37.7l5.26 58.97 76.94 21.35.17-.04v-39.08z"/><path fill="#fff" d="M149.87 138.61v37.56h46.25l-4.36 48.71-41.89 11.3v39.07l76.99-21.33.57-6.35 8.82-98.87.92-10.09H149.87zM149.87 62.59v37.56h90.72l.75-8.44 1.71-19.04.9-10.08h-94.08z"/></svg>