<svg xmlns="http://www.w3.org/2000/svg" viewBox="0 0 300 340"><defs><radialGradient id="a" cx="384.1" cy="-119.82" r="215.15" gradientTransform="matrix(.83 0 0 -.83 -197.93 1.77)" gradientUnits="userSpaceOnUse"><stop offset="0" stop-color="#360100" stop-opacity=".85"/><stop offset=".77" stop-color="#360100"/></radialGradient></defs><path fill="url(#a)" d="M12.5 12.5h275V280h-275z"/><path d="M0 0v292.5h300V0zm12.5 12.5h275V280h-275z" fill="#f37021"/><path d="M104.06 165.62l-9.9 37.5c-.2 1-.61 1.26-1.85 1.26H74c-1.25 0-1.44-.42-1.25-1.85l35.44-124.32c.62-2.27 1-4.22 1.25-10.41 0-.83.41-1.25 1-1.25h26.19c.83 0 1.25.2 1.45 1.25l39.8 134.93c.22 1 0 1.65-1 1.65h-20.63c-1 0-1.65-.24-1.86-1.07l-10.32-37.69zm34.86-20.31c-3.51-13.82-11.76-44.11-14.84-58.75h-.22c-2.61 14.69-9.27 39.37-14.43 58.75zm56.26-69.47c0-8 5.57-12.79 12.78-12.79 7.64 0 12.79 5.16 12.79 12.79 0 8.25-5.36 12.79-13 12.79-7.44 0-12.6-4.54-12.6-12.79zm1.39 28.41c0-1 .42-1.44 1.46-1.44h19.6c1 0 1.43.41 1.43 1.44v98.67c0 1-.2 1.46-1.43 1.46h-19.42c-1.25 0-1.65-.63-1.65-1.65z" fill="#f37021"/></svg>