<svg xmlns="http://www.w3.org/2000/svg" viewBox="0 0 300 340"><path fill="#f7df1e" d="M0 0h300v300H0z"/><path d="M201.52 234.38c6 9.86 13.91 17.12 27.81 17.12 11.68 0 19.15-5.84 19.15-13.91 0-9.67-7.67-13.09-20.52-18.71l-7.05-3c-20.35-8.66-33.86-19.52-33.86-42.47 0-21.15 16.11-37.24 41.29-37.24 17.92 0 30.81 6.24 40.09 22.57l-22 14.09c-4.83-8.66-10-12.07-18.14-12.07-8.26 0-13.49 5.23-13.49 12.07 0 8.46 5.23 11.89 17.33 17.12l7 3c24 10.27 37.48 20.75 37.48 44.29 0 25.38-19.94 39.28-46.72 39.28-26.18 0-43.09-12.47-51.37-28.82zm-99.58 2.44c4.43 7.85 8.46 14.5 18.14 14.5 9.26 0 15.11-3.62 15.11-17.71v-95.86h28.19V234c0 29.18-17.12 42.47-42.1 42.47-22.57 0-35.64-11.68-42.29-25.75z"/></svg>