<svg xmlns="http://www.w3.org/2000/svg" width="300" height="340" viewBox="0 0 300 340"><title>jest_logo</title><path d="M212,163.13a38.25,38.25,0,0,1,11.87-27.72L199.52,85.72l-24.11,48.76a38.32,38.32,0,0,1,12.88,28.65c0,.07,0,.14,0,.22l23.74.34C212,163.5,212,163.32,212,163.13Z" fill="none"/><path d="M272.26,194.62A38.33,38.33,0,0,1,212,163.69l-23.74-.34a38.38,38.38,0,0,1-44.11,37.72,142.84,142.84,0,0,1-22.7,27.44A130.65,130.65,0,0,1,75.61,257l-3.07,1.09-2.9-1.49c-21.18-10.88-31.27-33.91-24.85-55.08A38.21,38.21,0,0,1,34.87,199q-1.57,3.31-3.19,6.61c-6.3,13-12.82,26.34-15.23,40.88-2.6,15.69-3.63,44.32,18.7,59.8C65.63,327.41,98,311.35,135.4,292.76c18.71-9.3,38-18.9,58-23.83,7.55-1.86,15.29-3,22.76-4.05,14-2,27.14-3.92,38.14-10.29a45.21,45.21,0,0,0,22.14-31.31h0A46.84,46.84,0,0,0,272.26,194.62Z" fill="#c63d14"/><path d="M49.07,186.66a23.31,23.31,0,1,0-23.31-23.31A23.34,23.34,0,0,0,49.07,186.66Z" fill="#c63d14"/><path d="M149.91,186.44a23.31,23.31,0,1,0-23.3-23.31A23.33,23.33,0,0,0,149.91,186.44Z" fill="#c63d14"/><path d="M250.38,186.44a23.31,23.31,0,1,0-23.31-23.31A23.34,23.34,0,0,0,250.38,186.44Z" fill="#c63d14"/><path d="M162.38,126.85l37.2-75.23,37.1,75.67a39.51,39.51,0,0,1,4.75-1.47L279,15.06H120L157.42,125.5A38.67,38.67,0,0,1,162.38,126.85Z" fill="#c63d14"/><path d="M288.75,163.13a38.43,38.43,0,0,0-31.28-37.7L300,0H99l42.59,125.68a38.35,38.35,0,0,0-11.89,70,128.43,128.43,0,0,1-18.55,21.85,116.31,116.31,0,0,1-37.39,24C60.1,233,54.33,216.84,60.32,202.76l.47-1.1.88-2.07a38.4,38.4,0,1,0-39.52-8.93q-2,4.2-4,8.35c-6.46,13.27-13.78,28.31-16.55,45-5.5,33.17,3.37,59.68,25,74.65a68,68,0,0,0,39.82,12.66c25.23,0,50.75-12.67,75.71-25.07,18-8.93,36.57-18.16,54.93-22.69,6.83-1.69,13.86-2.7,21.3-3.77,14.76-2.13,30-4.33,43.54-12.16a60.25,60.25,0,0,0,29.43-41.77,62.18,62.18,0,0,0-8.17-42.76A38.14,38.14,0,0,0,288.75,163.13Zm-12.29,60.15a45.21,45.21,0,0,1-22.14,31.31c-11,6.37-24.18,8.27-38.14,10.29-7.47,1.07-15.21,2.19-22.76,4.05-20,4.93-39.31,14.53-58,23.83C98,311.35,65.63,327.41,35.15,306.28c-22.33-15.48-21.3-44.11-18.7-59.8,2.41-14.54,8.93-27.93,15.23-40.88q1.62-3.3,3.19-6.61a38.21,38.21,0,0,0,9.92,2.49c-6.42,21.17,3.67,44.2,24.85,55.08l2.9,1.49L75.61,257a130.65,130.65,0,0,0,45.86-28.45,142.84,142.84,0,0,0,22.7-27.44,38.38,38.38,0,0,0,44.11-37.72c0-.08,0-.15,0-.22a38.32,38.32,0,0,0-12.88-28.65l24.11-48.76,24.36,49.69A38.25,38.25,0,0,0,212,163.13c0,.19,0,.37,0,.56a38.33,38.33,0,0,0,60.24,30.93,46.84,46.84,0,0,1,4.2,28.66ZM49.07,140a23.31,23.31,0,1,1-23.31,23.31A23.34,23.34,0,0,1,49.07,140ZM279,15.06,241.43,125.82a39.51,39.51,0,0,0-4.75,1.47l-37.1-75.67-37.2,75.23a38.67,38.67,0,0,0-5-1.35L120,15.06ZM250.38,139.82a23.31,23.31,0,1,1-23.31,23.31A23.34,23.34,0,0,1,250.38,139.82Zm-100.47,0a23.31,23.31,0,1,1-23.3,23.31A23.33,23.33,0,0,1,149.91,139.82Z" fill="#fff"/></svg>