<svg xmlns="http://www.w3.org/2000/svg" viewBox="0 0 300 340"><path d="M212 163.13a38.2 38.2 0 0111.87-27.72l-24.35-49.69-24.11 48.76a38.31 38.31 0 0112.88 28.65v.22l23.74.34a3.51 3.51 0 01-.03-.56z" fill="none"/><path d="M272.26 194.62A38.33 38.33 0 01212 163.69l-23.74-.34a38.38 38.38 0 01-38.61 38.15 39 39 0 01-5.5-.43 142.63 142.63 0 01-22.7 27.44A130.63 130.63 0 0175.61 257l-3.07 1.09-2.9-1.49c-21.18-10.88-31.27-33.91-24.85-55.08a38.26 38.26 0 01-9.92-2.52q-1.57 3.31-3.19 6.61c-6.3 13-12.82 26.34-15.23 40.88-2.6 15.69-3.63 44.32 18.7 59.8 30.48 21.12 62.85 5.06 100.25-13.53 18.71-9.3 38-18.9 58-23.83a227.51 227.51 0 0122.76-4.05c14-2 27.14-3.92 38.14-10.29a45.21 45.21 0 0022.14-31.31 46.81 46.81 0 00-4.18-28.66zM49.07 186.66a23.31 23.31 0 10-23.31-23.31 23.34 23.34 0 0023.31 23.31z" fill="#c63d14"/><path d="M149.91 186.44a23.31 23.31 0 10-23.3-23.32 23.33 23.33 0 0023.3 23.32zM250.38 186.44a23.31 23.31 0 10-23.31-23.31 23.34 23.34 0 0023.31 23.31zM162.38 126.85l37.2-75.23 37.1 75.67a39.51 39.51 0 014.75-1.47L279 15.06H120l37.42 110.44a38.67 38.67 0 014.96 1.35z" fill="#c63d14"/><path d="M288.75 163.13a38.44 38.44 0 00-31.28-37.7L300 0H99l42.59 125.68a38.35 38.35 0 00-11.89 70 128.62 128.62 0 01-18.55 21.85 116.28 116.28 0 01-37.39 24C60.1 233 54.33 216.84 60.32 202.76l.47-1.1.88-2.07a38.39 38.39 0 10-39.52-8.93q-2 4.2-4 8.35C11.69 212.28 4.37 227.32 1.6 244c-5.5 33.17 3.37 59.68 25 74.65a68.07 68.07 0 0039.82 12.66c25.23 0 50.75-12.67 75.71-25.07 18-8.93 36.57-18.16 54.93-22.69 6.83-1.69 13.86-2.7 21.3-3.77 14.76-2.13 30-4.33 43.54-12.16a60.26 60.26 0 0029.43-41.77 62.15 62.15 0 00-8.17-42.76 38.11 38.11 0 005.59-19.96zm-12.29 60.15a45.21 45.21 0 01-22.14 31.31c-11 6.37-24.18 8.27-38.14 10.29-7.47 1.07-15.21 2.19-22.76 4.05-20 4.93-39.31 14.53-58 23.83C98 311.35 65.63 327.41 35.15 306.28c-22.33-15.48-21.3-44.11-18.7-59.8 2.41-14.54 8.93-27.93 15.23-40.88q1.62-3.3 3.19-6.61a38.21 38.21 0 009.92 2.49c-6.42 21.17 3.67 44.2 24.85 55.08l2.9 1.49 3.07-1.05a130.7 130.7 0 0045.86-28.45 142.63 142.63 0 0022.7-27.44 38.38 38.38 0 0043.68-32.22 37.52 37.52 0 00.43-5.5v-.22a38.31 38.31 0 00-12.88-28.65l24.11-48.76 24.36 49.69A38.22 38.22 0 00212 163.13v.56a38.33 38.33 0 0060.24 30.93 46.88 46.88 0 014.2 28.66zM49.07 140a23.31 23.31 0 11-23.31 23.31A23.34 23.34 0 0149.07 140zM279 15.06l-37.57 110.76a39.51 39.51 0 00-4.75 1.47l-37.1-75.67-37.2 75.23a39.25 39.25 0 00-5-1.35L120 15.06zm-28.62 124.76a23.31 23.31 0 11-23.31 23.31 23.34 23.34 0 0123.31-23.31zm-100.47 0a23.31 23.31 0 11-23.3 23.32 23.33 23.33 0 0123.3-23.32z" fill="#fff"/></svg>