<svg xmlns="http://www.w3.org/2000/svg" viewBox="0 0 301 340"><path fill="#f7df1e" stroke="#000" stroke-width="2" d="M.5 0h237.85v237.85H.5V0z"/><path d="M160.27 185.82c4.79 7.82 11 13.57 22 13.57 9.26 0 15.18-4.63 15.18-11 0-7.67-6.08-10.38-16.28-14.84l-5.58-2.4c-16.13-6.87-26.85-15.47-26.85-33.67 0-16.76 12.78-29.53 32.74-29.53 14.21 0 24.42 4.95 31.79 17.9L195.91 137c-3.83-6.87-8-9.57-14.38-9.57s-10.7 4.15-10.7 9.57c0 6.71 4.15 9.42 13.74 13.58l5.59 2.39c19 8.14 29.71 16.44 29.71 35.11 0 20.12-15.81 31.15-37 31.15-20.76 0-34.17-9.9-40.73-22.86l18.16-10.55zm80.63 0c4.79 7.82 11 13.57 22 13.57 9.26 0 15.17-4.63 15.17-11 0-7.67-6.08-10.38-16.27-14.84l-5.59-2.4c-16.12-6.87-26.84-15.47-26.84-33.67 0-16.76 12.77-29.53 32.73-29.53 14.21 0 24.43 4.95 31.79 17.9L276.54 137c-3.83-6.87-8-9.57-14.39-9.57s-10.69 4.15-10.69 9.57c0 6.71 4.15 9.42 13.74 13.58l5.59 2.39c19 8.14 29.71 16.44 29.71 35.11 0 20.12-15.81 31.15-37 31.15-20.75 0-34.16-9.9-40.72-22.86l18.16-10.55zm-159.58 1.93c3.51 6.23 6.7 11.5 14.38 11.5 7.35 0 12-2.87 12-14v-76H130v76.3c0 23.14-13.57 33.67-33.38 33.67-17.89 0-28.25-9.26-33.52-20.41l18.19-11z"/></svg>