<svg xmlns="http://www.w3.org/2000/svg" viewBox="0 0 300 340"><path d="M221.78 222.8c1.9-15.87 1.33-18.2 13.15-15.63l3 .27c9.09.41 21-1.47 28-4.71 15-7 24-18.63 9.13-15.57-33.83 7-36.15-4.47-36.15-4.47 35.71-53 50.64-120.27 37.76-136.73-35.15-44.92-96-23.68-97-23.13l-.32.06a121.43 121.43 0 00-22.56-2.35c-15.31-.25-26.93 4-35.74 10.7 0 0-108.54-44.72-103.49 56.24C18.58 109 48.29 250 83.73 207.39c13-15.58 25.47-28.75 25.47-28.75a32.87 32.87 0 0021.46 5.48l.6-.52a23.37 23.37 0 00.24 6.07c-9.12 10.2-6.44 12-24.69 15.74-18.47 3.81-7.62 10.58-.54 12.36 8.59 2.14 28.45 5.18 41.88-13.61l-.54 2.15c3.58 2.86 3.34 20.59 3.85 33.25s1.35 24.49 3.94 31.46 5.6 24.91 29.6 19.77c20-4.29 35.37-10.48 36.77-68"/><path d="M177.11 309c-27.52 0-35-22.8-37.4-30.3-.21-.62-.39-1.2-.58-1.7-3.28-8.86-4.37-21.11-5-36.78-.07-1.79-.13-3.67-.18-5.6-9.6 2.72-20.57 2.76-31.89-.07a36.22 36.22 0 01-14.73-7.24 30.79 30.79 0 01-17.07 5.35c-21.53 0-38.53-21.94-53.5-69C7 132.91.75 99.6.19 88.34c-1.4-28 4.95-49.64 18.87-64.27C31.71 10.77 49.58 4 72.17 4c18.56 0 36.39 4.71 46.62 8 10.69-5.88 23-8.86 36.66-8.86h1.57a143.45 143.45 0 0121.2 1.85A133.26 133.26 0 01214.08 0c31.8 0 58.15 12.2 76.21 35.27 12.71 16.26 8.37 46.88 2.48 69.73a293.63 293.63 0 01-26.61 66.21q2.54-.4 5.36-1a37.52 37.52 0 017.63-.86c12.56 0 18.82 8.2 20.37 15.21 3.92 17.78-17.1 29.65-26.32 33.93-10.12 4.7-23.53 6.37-32.7 6.37h-1.43c-.86 29.75-5.35 48.88-14.5 61.9-10.16 14.48-23.88 18.44-35.93 21a55.4 55.4 0 01-11.53 1.24zm-1.74-34.85a6.49 6.49 0 001.74.18 20.87 20.87 0 004.26-.53c9.13-2 12.31-3.47 14.83-7 3.38-4.83 7.56-16.44 8.24-44.41v-.83l.1-.81c.12-1 .23-2 .34-2.86.73-6.3 1.26-10.85 3.06-15.22a21.56 21.56 0 0115-13 19.43 19.43 0 01-1.1-3.49l-1.4-7.18 4.06-6a260.94 260.94 0 0033.9-73.73c6.83-24.91 5.91-39.48 4.36-42.91C251.36 42 235 34.68 214.08 34.68a95.15 95.15 0 00-27.38 4l-1.23.67-6.37 1.17-3.32-.69a104.57 104.57 0 00-19.32-2h-1c-9.77 0-17.61 2.35-24 7.18l-7.91 6-9.17-3.78c-.18-.07-21.25-8.56-42.23-8.56-12.72 0-22.14 3.12-28 9.26-7.12 7.48-10.27 20.49-9.36 38.64.34 6.93 5.14 33.78 13.08 60.4 10.1 33.86 18.53 45.75 22.2 49.63l.29-.34c13.16-15.83 25.7-29.05 26.23-29.6l10-10.56 12.13 8.06a16.49 16.49 0 005.67 2.41l28.24-24.14-4.18 42.82a6.23 6.23 0 00.12 1.73l1.25 8.1-4 4.45 5.18 2.39 7.35-9.19c9.24 7.39 9.59 20.11 10.13 39.36.06 2.33.13 4.61.21 6.74.21 5.1.83 20.6 2.88 26.12.37 1 .7 2 1 3 .57 1.75 1.76 5.4 2.69 6.2z"/><path d="M275 187.16c-33.83 7-36.15-4.47-36.15-4.47 35.71-53 50.64-120.27 37.76-136.74-35.15-44.91-96-23.67-97-23.12l-.33.06a121.45 121.45 0 00-22.57-2.35c-15.31-.25-26.92 4-35.73 10.69 0 0-108.54-44.71-103.49 56.24C18.58 109 48.29 250 83.73 207.39c13-15.58 25.46-28.75 25.46-28.75a32.9 32.9 0 0021.46 5.48l.61-.52a23.37 23.37 0 00.24 6.07c-9.13 10.2-6.45 12-24.7 15.74-18.46 3.81-7.62 10.58-.53 12.36 8.58 2.14 28.45 5.18 41.87-13.61l-.53 2.15c3.57 2.86 6.08 18.63 5.66 32.93s-.7 24.11 2.12 31.78S161 295.93 185 290.79c20-4.3 30.43-15.43 31.88-34 1-13.2 3.34-11.25 3.49-23.05l1.86-5.59c2.15-17.89.34-23.67 12.69-21l3 .26c9.09.42 21-1.46 28-4.7 15-7 24-18.63 9.13-15.57z" fill="#336791"/><path d="M178.49 298c-21.37 0-28.29-17.29-30.77-23.5-4.48-11.19-4.56-53.84-3.91-77.28a5.78 5.78 0 0111.56.32c-1.06 38 .73 66.8 3.08 72.67 3.8 9.48 9.37 19.28 27.65 15.36 17.1-3.67 23.18-9.82 26-26.3 2.28-13.2 6.78-50.74 7.33-58.15A5.78 5.78 0 01231 202c-.58 7.77-5.09 45.47-7.47 59.25-3.67 21.3-13.15 31-35 35.64a48.05 48.05 0 01-10 1.13zM70 220.72a18.42 18.42 0 01-5.79-1c-13.61-4.54-26.39-26.12-38-64.13C17.52 127 12 97.09 11.49 87.34 10 58 17.67 37.22 34.21 25.5c32.44-23 86.53-1.29 88.81-.36a5.78 5.78 0 11-4.37 10.7c-.5-.2-50.53-20.22-77.78-.89C27.78 44.23 21.78 61.66 23 86.76c.4 8 5.51 36.82 14.26 65.49 14.22 46.56 26.13 55.05 30.6 56.54 1.4.47 5.13 1.71 11.14-5.52 12.93-15.55 24.82-28 24.94-28.1a5.78 5.78 0 118.34 8c-.11.12-11.73 12.27-24.39 27.49-6.46 7.77-12.74 10.06-17.9 10.06zM238.63 188.05a5.78 5.78 0 01-4.78-9 271 271 0 0036.3-80.28c7-26.92 5.86-44.34 1.7-49.66C240.64 9.22 187 25.92 182 27.6a5.12 5.12 0 01-.77.3 5.78 5.78 0 01-4.87-10.42c1.82-1.1 17.86-6.34 37.49-6.34H215c27.6.3 50.4 10.96 66 30.86 16.06 20.52-2.53 91.61-37.52 143.53a5.78 5.78 0 01-4.8 2.55z" fill="#fff"/><path d="M240.28 212.87c-6.28 0-12-.91-15.78-3.14a9.61 9.61 0 01-5.05-7.81c-.86-15 6.33-19.65 11.44-21.54l-.89-1.08a59.37 59.37 0 01-9.44-15.23c-.4-1-1.82-3.52-3.33-6.23-9.57-17.15-27.37-49.08-15.06-66.67 5.53-7.91 15.61-11.25 30.66-10.11-6.09-15.89-28.13-54.37-76.46-55.16-15.23-.27-27.69 4.39-37 13.81-21.16 21.29-20.45 60.41-20.44 60.8a5.78 5.78 0 01-11.56.3c-.05-1.8-.88-44.32 23.76-69.2 11.64-11.76 26.93-17.55 45.45-17.27 34.27.56 56.32 18 68.78 32.49 13.64 15.81 20.27 33.43 20.83 39.34.45 4.86-2.78 6.85-4.77 7.26h-2.09c-10.11-1.62-23.11-2.19-27.66 4.32-8.16 11.66 9.16 42.72 15.68 54.41 2 3.52 3.27 5.86 3.93 7.45a47.65 47.65 0 007.77 12.41c2.27 2.84 4.25 5.32 5.09 8.38.68.74 6.09 5.46 29.48.63 9.74-2 13.08 1.49 14.17 4.79 2.84 8.58-11 17.67-19.69 21.68-6.44 3-17.78 5.32-27.82 5.32zm-9.34-12.76c4.58 2.2 22.48 1.51 32.29-3a52.27 52.27 0 006.39-3.51c-14.35 2.28-24.8 1.33-31.11-2.84-.21-.13-.41-.27-.6-.41l-1 .3c-3.54 1-6.14 1.72-5.93 9.5zM118.4 224.73a57 57 0 01-13.77-1.73c-1.46-.36-14.23-3.81-14-12.5.16-8.09 10.81-10.29 14.82-11.11 12.32-2.54 13-3.41 16.8-8.23 1.21-1.53 2.7-3.43 4.75-5.72 3.36-3.76 7.11-5.67 11.12-5.67a16.35 16.35 0 016.4 1.5c4.68 1.94 8.56 6.57 10.14 12.09a16 16 0 01-2 13.79 40.51 40.51 0 01-34.2 17.63zm-12.84-13.57a17 17 0 001.87.58 45.58 45.58 0 0011 1.44c10.39 0 18.73-4.31 24.8-12.8.91-1.27.51-3.14.3-3.89a7.43 7.43 0 00-3.45-4.59 7.12 7.12 0 00-2-.62 4.84 4.84 0 00-2.5 1.82c-1.81 2-3.13 3.69-4.29 5.16-5.65 7.19-8.71 9.34-23.55 12.4-.82.17-1.54.33-2.17.5z" fill="#fff"/><path d="M130.65 194.85A5.78 5.78 0 01125 190l-.06-.4a39.92 39.92 0 01-26.26-12.48 45.2 45.2 0 01-11.92-37.84 169.56 169.56 0 00.8-34.28c-.11-2-.2-3.39-.19-4.42 0-1.83 0-5.64 11.94-11.68a62.69 62.69 0 0120.76-6.45c14.93-1.45 25.15 5.46 28.11 19.13 7.61 35.18.58 50.79-4.56 62.2-.92 2.05-1.79 4-2.47 5.82l-.63 1.69c-2.56 6.87-4.78 12.8-4.15 16.91a5.77 5.77 0 01-4.83 6.58 5.34 5.34 0 01-.89.07zM99 102.57c0 .54.06 1.14.1 1.79a179.49 179.49 0 01-.94 36.47 33.71 33.71 0 008.84 28.24 28.39 28.39 0 0019 9c.93-3.43 2.26-7 3.68-10.79l.62-1.67c.82-2.21 1.77-4.32 2.78-6.55 4.72-10.49 10.6-23.55 3.8-55-1.55-7.15-5.44-8.94-8.23-9.67-10.13-2.63-25.34 4.86-29.66 8.21z" fill="#fff"/><path d="M120.44 100.06c-.19 1.37 2.51 5 6 5.52s6.53-2.37 6.72-3.74-2.51-2.88-6-3.38-6.53.23-6.72 1.6z" fill="#fff"/><path d="M127.29 107.56a7.73 7.73 0 01-1.08-.08 9.92 9.92 0 01-6.33-3.94 5.49 5.49 0 01-1.35-3.75c.29-2.13 2.71-3.41 6.46-3.41a17.11 17.11 0 012.44.18 14.74 14.74 0 015.08 1.58c2.54 1.42 2.72 3.09 2.6 4-.34 2.46-4 5.46-7.82 5.46zm-4.77-7a6.45 6.45 0 004.22 3.1 5.14 5.14 0 004.38-1.86 9.49 9.49 0 00-4.22-1.44 14 14 0 00-1.91-.14 7.73 7.73 0 00-2.47.34zM227.65 97.26c.19 1.37-2.51 5-6 5.52s-6.53-2.37-6.72-3.74 2.51-2.88 6-3.37 6.54.22 6.73 1.59z" fill="#fff"/><path d="M220.8 103.8c-3.55 0-6.61-2.81-6.87-4.62-.31-2.27 3.22-4 6.86-4.47a16.58 16.58 0 012.3-.16c3.23 0 5.29 1 5.51 2.58.18 1.23-.85 2.81-1.88 3.88a8.74 8.74 0 01-5 2.72 6 6 0 01-.95.07zm2.29-7.32a14.24 14.24 0 00-2 .14c-3.56.5-5.27 1.9-5.22 2.29.11.79 2.64 3.33 5.64 2.91 3.16-.43 5.3-3.69 5.22-4.43 0-.19-1-.91-3.61-.91zM232.73 177.85a5.79 5.79 0 01-4.8-9c7.86-11.74 6.46-23.41 5-35.77a106.82 106.82 0 01-1.11-16A112.12 112.12 0 01233.3 103a68.15 68.15 0 001.18-14.93 5.78 5.78 0 0111.52-.61 79.32 79.32 0 01-1.29 17.31 100.94 100.94 0 00-1.38 12.71 95.2 95.2 0 001 14.22c1.59 13.25 3.4 28.28-6.85 43.58a5.75 5.75 0 01-4.8 2.57z" fill="#fff"/></svg>