<svg xmlns="http://www.w3.org/2000/svg" viewBox="0 0 300 340"><defs><linearGradient id="a" x1="969.2" y1="-1257.81" x2="1244.43" y2="-1494.61" gradientTransform="matrix(.56 0 0 -.57 -542.34 -706.33)" gradientUnits="userSpaceOnUse"><stop offset="0" stop-color="#5a9fd4"/><stop offset="1" stop-color="#306998"/></linearGradient><linearGradient id="b" x1="1350.83" y1="-1637.93" x2="1252.54" y2="-1498.87" gradientTransform="matrix(.56 0 0 -.57 -542.34 -706.33)" gradientUnits="userSpaceOnUse"><stop offset="0" stop-color="#ffd43b"/><stop offset="1" stop-color="#ffe873"/></linearGradient><radialGradient id="c" cx="-1201.51" cy="-35.84" r="29.03" gradientTransform="matrix(0 -.61 -2.66 0 55.16 -405.47)" gradientUnits="userSpaceOnUse"><stop offset="0" stop-color="#b8b8b8" stop-opacity=".5"/><stop offset="1" stop-color="#7f7f7f" stop-opacity="0"/></radialGradient></defs><path d="M148.33 0A194.13 194.13 0 00116 2.76C87.34 7.83 82.13 18.42 82.13 38v25.8h67.7v8.6h-93.1c-19.67 0-36.9 11.83-42.29 34.32-6.22 25.79-6.49 41.88 0 68.8 4.81 20 16.3 34.32 36 34.32h23.25v-30.98c0-22.34 19.33-42.05 42.29-42.05h67.62c18.82 0 33.84-15.5 33.84-34.4V38c0-18.34-15.47-32.12-33.84-35.19A212.22 212.22 0 00148.33 0zm-36.61 20.75A12.9 12.9 0 1199 33.69a12.85 12.85 0 0112.72-12.94z" fill="url(#a)"/><path d="M225.89 72.35v30.06c0 23.31-19.76 42.92-42.29 42.92H116c-18.52 0-33.85 15.85-33.85 34.4v64.46c0 18.35 16 29.14 33.85 34.4 21.43 6.3 42 7.44 67.62 0 17-4.94 33.85-14.87 33.85-34.4v-25.8h-67.64v-8.6h101.46c19.68 0 27-13.72 33.85-34.32 7.07-21.2 6.77-41.6 0-68.8-4.86-19.58-14.14-34.32-33.85-34.32zm-38 163.24a12.9 12.9 0 11-12.71 12.86 12.78 12.78 0 0112.68-12.86z" fill="url(#b)"/><path d="M241.31 322.41c0 9.72-40.61 17.59-90.71 17.59s-90.72-7.87-90.72-17.59 40.62-17.59 90.72-17.59 90.71 7.88 90.71 17.59z" opacity=".44" fill="url(#c)" style="isolation:isolate"/></svg>