<svg xmlns="http://www.w3.org/2000/svg" viewBox="0 0 300 340"><path d="M300 133.61c0-19.87-24.89-38.71-63-50.39 8.8-38.89 4.89-69.83-12.36-79.74A26.86 26.86 0 00210.9.06V13.7a14.18 14.18 0 017 1.59c8.31 4.77 11.92 22.93 9.11 46.29-.68 5.75-1.78 11.8-3.12 18A296 296 0 00185 72.89a299.52 299.52 0 00-25.4-30.57c19.94-18.53 38.65-28.68 51.4-28.68V0c-16.81 0-38.83 12-61.08 32.77C127.62 12.11 105.61.24 88.79.24v13.64c12.66 0 31.43 10.09 51.37 28.5a287.7 287.7 0 00-25.26 30.51A285.45 285.45 0 0076 79.62a182.82 182.82 0 01-3.18-17.73c-2.82-23.36.68-41.52 8.94-46.36a13.6 13.6 0 017-1.59V.31A27.28 27.28 0 0075 3.73c-17.18 9.91-21 40.79-12.17 79.56C24.77 95 0 113.8 0 133.61S24.89 172.32 63 184c-8.8 38.89-4.89 69.83 12.36 79.74a26.9 26.9 0 0013.76 3.42c16.81 0 38.83-12 61.09-32.77 22.25 20.67 44.27 32.53 61.08 32.53a27.28 27.28 0 0013.82-3.43c17.19-9.9 21-40.78 12.17-79.55 37.95-11.68 62.72-30.52 62.72-50.33zm-79.62-40.78c-2.26 7.88-5.07 16-8.25 24.15-2.51-4.89-5.14-9.79-8-14.68s-5.81-9.66-8.81-14.31c8.68 1.29 17.05 2.88 25.06 4.84zm-28 65.12c-4.77 8.26-9.67 16.08-14.74 23.36-9.11.79-18.35 1.22-27.64 1.22s-18.47-.43-27.52-1.16c-5.07-7.27-10-15-14.8-23.24q-7-12-12.72-24.33c3.79-8.2 8.08-16.39 12.66-24.4 4.77-8.25 9.66-16.08 14.74-23.36 9.11-.79 18.34-1.22 27.64-1.22s18.47.43 27.52 1.16q7.6 10.92 14.8 23.24 7 12 12.72 24.33c-3.86 8.19-8.04 16.39-12.66 24.45zm19.75-7.95c3.3 8.19 6.11 16.39 8.44 24.34-8 1.95-16.45 3.61-25.2 4.89 3-4.71 6-9.54 8.81-14.49s5.44-9.85 7.95-14.74zm-62 65.25a255.34 255.34 0 01-17-19.57c5.51.24 11.13.43 16.82.43s11.43-.13 17-.43a238 238 0 01-16.83 19.57zm-45.49-36c-8.69-1.28-17.06-2.87-25.07-4.83 2.26-7.89 5.07-16 8.25-24.15 2.51 4.89 5.14 9.78 8 14.67s5.81 9.64 8.81 14.29zM149.82 52a252.9 252.9 0 0117 19.56c-5.5-.24-11.12-.42-16.81-.42s-11.43.12-17 .42A237.75 237.75 0 01149.82 52zm-45.26 36c-3 4.71-6 9.54-8.8 14.5s-5.44 9.78-8 14.67c-3.3-8.19-6.12-16.39-8.44-24.34 8.06-1.9 16.5-3.55 25.24-4.83zm-55.33 76.55c-21.65-9.23-35.65-21.34-35.65-30.94s14-21.77 35.65-30.94c5.25-2.26 11-4.28 16.93-6.17a295.07 295.07 0 0013.76 37.23 290 290 0 00-13.57 37.06 180.31 180.31 0 01-17.12-6.24zm32.89 87.39C73.81 247.17 70.2 229 73 205.65c.68-5.75 1.78-11.81 3.12-18a296.06 296.06 0 0038.88 6.68 298.59 298.59 0 0025.44 30.58c-19.94 18.52-38.65 28.68-51.37 28.68a14.6 14.6 0 01-6.95-1.65zm145-46.6c2.87 23.36-.67 41.52-8.93 46.35a13.6 13.6 0 01-7 1.59c-12.66 0-31.43-10.09-51.36-28.49a288 288 0 0025.25-30.52 286.76 286.76 0 0038.92-6.72 169.06 169.06 0 013.17 17.79zm23.54-40.79c-5.26 2.27-11 4.28-16.93 6.18A295.75 295.75 0 00220 133.49a289.47 289.47 0 0013.57-37.06c6 1.9 11.8 4 17.19 6.24 21.64 9.23 35.64 21.34 35.64 30.94s-14.04 21.77-35.69 30.94z" fill="#61dafb"/><path d="M149.94 105.67A27.95 27.95 0 11122 133.61a27.94 27.94 0 0127.94-27.94z" fill="#61dafb"/></svg>