<svg xmlns="http://www.w3.org/2000/svg" viewBox="0 0 300 340"><path d="M207.87 198.9a21.44 21.44 0 00-2.29-42.76h-.77a21.36 21.36 0 00-20.61 22.14 21.91 21.91 0 006.11 14.13c-13 25.57-32.84 44.28-62.61 59.94-20.24 10.68-41.23 14.5-62.23 11.83-17.18-2.29-30.54-9.93-38.94-22.52-12.22-18.66-13.36-38.94-3.05-59.18 7.25-14.5 18.7-25.19 26-30.54-1.53-5-3.82-13.36-5-19.47-55.35 40.09-49.63 94.3-32.83 119.88 12.6 19.08 38.18 30.92 66.43 30.92A94.23 94.23 0 00101 280.6c48.84-9.55 85.87-38.6 106.87-81.7z" fill="#764abc"/><path d="M275.06 151.56c-29-34-71.77-52.68-120.64-52.68h-6.11a21 21 0 00-18.7-11.46h-.77a21.39 21.39 0 00.77 42.76h.76a21.52 21.52 0 0018.71-13H156c29 0 56.5 8.4 81.31 24.82 19.09 12.59 32.84 29 40.47 48.86 6.49 16 6.11 31.69-.76 45.05-10.69 20.23-28.64 31.3-52.31 31.3a97.77 97.77 0 01-37.41-8c-4.2 3.81-11.83 9.92-17.18 13.74 16.42 7.63 33.22 11.83 49.25 11.83 36.65 0 63.75-20.23 74.06-40.47 11.07-22.13 10.31-60.31-18.32-92.76z" fill="#764abc"/><path d="M81.12 205.39A21.44 21.44 0 00102.5 226h.77a21.39 21.39 0 00-.77-42.76h-.76a6.36 6.36 0 00-2.67.39c-15.66-26-22.15-54.21-19.86-84.75C80.74 76 88.38 56.12 101.74 39.7c11.07-14.12 32.45-21 47-21.37 40.46-.77 57.64 49.62 58.79 69.86 5 1.14 13.36 3.81 19.09 5.72C222 32.07 183.82 0 147.17 0c-34.36 0-66 24.81-78.64 61.46C51 110.33 62.42 157.29 83.8 194.32a17.15 17.15 0 00-2.68 11.07z" fill="#764abc"/></svg>