<svg xmlns="http://www.w3.org/2000/svg" viewBox="0 0 300 340"><path d="M0 149.93h300v106c0 24.92-19.08 44-44 44H44c-24.91 0-44-19.08-44-44z"/><path d="M60.8 133.13a23.77 23.77 0 100 33.61h178.4a23.77 23.77 0 100-33.61H60.8z" fill="#ffb13b"/><path d="M256 193.84a43.63 43.63 0 01-23.75-7H67.75a43.69 43.69 0 01-23.76 7A43.92 43.92 0 0144 106a43.72 43.72 0 0123.75 7h164.52A43.92 43.92 0 11256 193.84zm-5.11-43.91l2.56 2.56a3.56 3.56 0 002.55 1.06 3.62 3.62 0 003.62-3.62 3.52 3.52 0 00-1.06-2.56 3.63 3.63 0 00-5.08 0zM44 146.31a3.58 3.58 0 00-2.56 1.06 3.62 3.62 0 000 5.12 3.56 3.56 0 002.56 1.06 3.57 3.57 0 002.16-.72l2.66-3.19-2.26-2.27a3.61 3.61 0 00-2.56-1.06z"/><path d="M98.81 75A23.77 23.77 0 1075 98.74l126.19 126.15A23.77 23.77 0 10225 201.12z" fill="#ffb13b"/><path d="M225 268.8a44 44 0 01-42.91-34.57L65.7 117.88A43.91 43.91 0 11118 65.62L234.3 182a43.92 43.92 0 01-9.3 86.8zm-3.62-47.54v3.63a3.62 3.62 0 103.62-3.63zM75 71.35a3.62 3.62 0 100 7.24h3.62V75A3.62 3.62 0 0075 71.35z"/><path d="M166.8 60.72a23.77 23.77 0 10-33.61 0v178.41a23.77 23.77 0 1033.61 0z" fill="#ffb13b"/><path d="M150 299.86a43.95 43.95 0 01-36.94-67.68V67.67A43.93 43.93 0 01150 0a43.94 43.94 0 0137 67.67V232.2a43.93 43.93 0 01-37 67.66zm-.79-48.24l-1.77 1.76a3.62 3.62 0 002.56 6.18 3.62 3.62 0 003.23-5.26zM148.1 47.13l.13.13 1.57 2 2.76-2.76a3.62 3.62 0 000-5.12 3.59 3.59 0 00-2.56-1.09 3.59 3.59 0 00-2.56 1.06 3.62 3.62 0 000 5.12z"/><path d="M225 98.74A23.77 23.77 0 10201.19 75L75 201.12a23.77 23.77 0 1023.77 23.77z" fill="#ffb13b"/><path d="M75 268.8a43.92 43.92 0 01-9.3-86.8L182.05 65.62a43.91 43.91 0 1152.25 52.26L118 234.23a44 44 0 01-43 34.57zm0-47.54a3.63 3.63 0 103.62 3.63v-3.63zM221.34 78.59H225a3.62 3.62 0 10-3.66-3.59z"/><path d="M60.8 133.13a23.77 23.77 0 100 33.61h178.4a23.77 23.77 0 100-33.61H60.8z" fill="#ffb13b"/><path d="M98.81 75A23.77 23.77 0 1075 98.74l126.19 126.15A23.77 23.77 0 10225 201.12z" fill="#ffb13b"/><path d="M166.8 60.72a23.77 23.77 0 10-33.61 0v178.41a23.77 23.77 0 1033.61 0z" fill="#ffb13b"/><path d="M225 98.74A23.77 23.77 0 10201.19 75L75 201.12a23.77 23.77 0 1023.77 23.77z" fill="#ffb13b"/><path d="M0 149.93h300v106c0 24.92-19.08 44-44 44H44c-24.91 0-44-19.08-44-44z" opacity=".8"/><path d="M45.05 224.81a38.87 38.87 0 1166.36-27.48H88.6a16.1 16.1 0 10-27.5 11.37c2.92 2.92 5.3 3.77 11.39 4.73 10.73 1.16 20.46 4.34 27.5 11.39a38.88 38.88 0 11-66.36 27.48H56.4a16.1 16.1 0 1027.49-11.37C81 238 76.8 237 72.51 236.21c-10.41-1.59-20.45-4.35-27.51-11.39zM189.12 158.46l-27.46 132.72h-22.81l-27.48-132.72h22.73l16.11 77.73 16.09-77.73zM228 213.43h38.87v38.87a38.87 38.87 0 01-77.74 0v-55a38.87 38.87 0 0177.74 0H244.1a16.1 16.1 0 10-32.19-.82v55.82a16.1 16.1 0 0032.19 0v-16.08H228z" fill="#fff"/></svg>