<svg xmlns="http://www.w3.org/2000/svg" viewBox="0 0 300 340"><path d="M246.88 292.5H53.13A53.08 53.08 0 010 239.38V53.13A53.08 53.08 0 0153.13 0h193.75A53.08 53.08 0 01300 53.13v186.25a53.08 53.08 0 01-53.12 53.12z" fill="#ff26be"/><path d="M242.12 280H57.88a45.45 45.45 0 01-45.38-45.38V57.88A45.46 45.46 0 0157.88 12.5H242a45.38 45.38 0 0145.38 45.38V234.5a45.29 45.29 0 01-45.26 45.5z" fill="#2e001f"/><path d="M118.63 136.88l35 67.25c.63 1 .26 2-.75 2h-21.75a2.46 2.46 0 01-2.63-1.62c-8-16.5-16.12-33-24.5-50.75h-.25C96.25 170.5 88 188.12 80 204.62a2.38 2.38 0 01-2.25 1.38H57.13c-1.25 0-1.38-1-.75-1.75L90.63 139 57.5 73a1 1 0 01.75-1.75h21.5A2 2 0 0182 72.63c7.88 16.5 15.88 33.5 23.38 50.12h.25c7.25-16.5 15.25-33.62 23-50 .62-1 1-1.62 2.25-1.62H151c1 0 1.38.75.75 1.75zM159.75 157.25c0-29.12 19.37-51.87 50.12-51.87a55.56 55.56 0 016.51.25V72.5a1.25 1.25 0 011.25-1.25h19.75c1 0 1.25.38 1.25 1V187a89.75 89.75 0 00.62 12.25c0 .75-.25 1-1 1.38a74.46 74.46 0 01-32 7.25c-27.13.12-46.5-16.63-46.5-50.63zm56.63-32a19 19 0 00-7.26-1.25c-15.75 0-26.74 12.13-26.74 32.25 0 23 11.25 32.25 25.37 32.25a23.84 23.84 0 008.63-1.37z" fill="#ffd9f2"/></svg>