<?xml version="1.0" encoding="utf-8"?>
<!-- Generator: Adobe Illustrator 14.0.0, SVG Export Plug-In . SVG Version: 6.00 Build 43363)  -->
<!DOCTYPE svg PUBLIC "-//W3C//DTD SVG 1.1//EN" "http://www.w3.org/Graphics/SVG/1.1/DTD/svg11.dtd">
<svg version="1.1"
	 id="svg3476" inkscape:version="0.91 r13725" sodipodi:docname="CSS3.svg" xmlns:dc="http://purl.org/dc/elements/1.1/" xmlns:sodipodi="http://sodipodi.sourceforge.net/DTD/sodipodi-0.dtd" xmlns:cc="http://creativecommons.org/ns#" xmlns:inkscape="http://www.inkscape.org/namespaces/inkscape" xmlns:svg="http://www.w3.org/2000/svg" xmlns:rdf="http://www.w3.org/1999/02/22-rdf-syntax-ns#"
	 xmlns="http://www.w3.org/2000/svg" xmlns:xlink="http://www.w3.org/1999/xlink" x="0px" y="0px" width="300px" height="340.231px"
	 viewBox="0 41.609 300 340.231" enable-background="new 0 41.609 300 340.231" xml:space="preserve">
<sodipodi:namedview  id="base" inkscape:pageshadow="2" inkscape:pageopacity="0.0" inkscape:cy="256" borderopacity="1.0" fit-margin-top="0" showgrid="false" bordercolor="#666666" inkscape:cx="181.367" fit-margin-left="0" pagecolor="#ffffff" inkscape:zoom="0.35" inkscape:window-maximized="1" inkscape:window-y="27" inkscape:window-x="0" inkscape:window-height="704" inkscape:window-width="1366" fit-margin-bottom="0" fit-margin-right="0" inkscape:current-layer="layer1" inkscape:document-units="px">
	</sodipodi:namedview>
<g>
	<polygon id="polygon2989" fill="#264DE4" points="300,41.609 272.67,347.784 149.816,381.84 27.303,347.831 0,41.609 	"/>
	<polygon id="polygon2991" fill="#2965F1" points="249.271,328.288 272.627,66.647 150,66.647 150,355.807 	"/>
	<polygon id="polygon2993" fill="#EBEBEB" points="62.59,180.219 65.955,217.776 150,217.776 150,180.219 	"/>
	<polygon id="polygon2995" fill="#EBEBEB" points="150,104.205 149.869,104.205 55.825,104.205 59.239,141.762 150,141.762 	"/>
	<polygon id="polygon2997" fill="#EBEBEB" points="150,316.834 150,277.76 149.836,277.803 108.008,266.509 105.333,236.555 
		85.01,236.555 67.633,236.555 72.895,295.526 149.827,316.883 	"/>
	<polygon id="polygon3005" fill="#FFFFFF" points="196.117,217.776 191.758,266.485 149.869,277.792 149.869,316.864 
		226.863,295.526 227.428,289.18 236.254,190.305 237.17,180.219 243.951,104.205 149.869,104.205 149.869,141.762 202.791,141.762 
		199.375,180.219 149.869,180.219 149.869,217.776 	"/>
</g>
</svg>
