<?xml version="1.0" encoding="utf-8"?>
<!-- Generator: Adobe Illustrator 14.0.0, SVG Export Plug-In . SVG Version: 6.00 Build 43363)  -->
<!DOCTYPE svg PUBLIC "-//W3C//DTD SVG 1.1//EN" "http://www.w3.org/Graphics/SVG/1.1/DTD/svg11.dtd">
<svg version="1.1" id="Layer_1" xmlns="http://www.w3.org/2000/svg" xmlns:xlink="http://www.w3.org/1999/xlink" x="0px" y="0px"
	 width="300px" height="340.232px" viewBox="0 54.493 300 340.232" enable-background="new 0 54.493 300 340.232"
	 xml:space="preserve">
<title>HTML5 Logo</title>
<polygon fill="#E44D26" points="27.302,360.715 0,54.493 300,54.493 272.669,360.667 149.816,394.726 "/>
<polygon fill="#F16529" points="150,368.692 249.271,341.171 272.627,79.531 150,79.531 "/>
<polygon fill="#EBEBEB" points="150,193.104 100.303,193.104 96.87,154.646 150,154.646 150,117.088 149.87,117.088 55.825,117.088 
	56.725,127.164 65.955,230.66 150,230.66 "/>
<polygon fill="#EBEBEB" points="150,290.644 149.835,290.688 108.008,279.393 105.334,249.439 85.01,249.439 67.633,249.439 
	72.895,308.409 149.827,329.766 150,329.719 "/>
<polygon fill="#FFFFFF" points="149.87,193.104 149.87,230.66 196.117,230.66 191.758,279.369 149.87,290.675 149.87,329.748 
	226.863,308.409 227.429,302.063 236.254,203.189 237.171,193.104 227.05,193.104 "/>
<polygon fill="#FFFFFF" points="149.87,117.088 149.87,140.415 149.87,154.554 149.87,154.646 240.467,154.646 240.467,154.646 
	240.588,154.646 241.341,146.204 243.053,127.164 243.95,117.088 "/>
</svg>
