<?xml version="1.0" encoding="utf-8"?>
<!-- Generator: Adobe Illustrator 14.0.0, SVG Export Plug-In . SVG Version: 6.00 Build 43363)  -->
<!DOCTYPE svg PUBLIC "-//W3C//DTD SVG 1.1//EN" "http://www.w3.org/Graphics/SVG/1.1/DTD/svg11.dtd">
<svg version="1.1" id="Layer_1" xmlns="http://www.w3.org/2000/svg" xmlns:xlink="http://www.w3.org/1999/xlink" x="0px" y="0px"
	 width="300px" height="300px" viewBox="250 150 300 300" enable-background="new 250 150 300 300" xml:space="preserve">
<rect x="250" y="150" fill="#F7DF1E" width="300" height="300"/>
<path d="M451.523,384.376c6.043,9.866,13.905,17.119,27.811,17.119c11.68,0,19.143-5.838,19.143-13.905
	c0-9.666-7.667-13.09-20.524-18.714l-7.048-3.023c-20.342-8.667-33.856-19.524-33.856-42.477c0-21.143,16.109-37.238,41.286-37.238
	c17.924,0,30.809,6.238,40.095,22.571l-21.952,14.096c-4.834-8.666-10.048-12.081-18.143-12.081
	c-8.258,0-13.491,5.238-13.491,12.081c0,8.457,5.238,11.881,17.333,17.119l7.048,3.02c23.952,10.271,37.477,20.742,37.477,44.285
	c0,25.381-19.938,39.285-46.714,39.285c-26.182,0-43.096-12.476-51.372-28.828L451.523,384.376z M351.938,386.818
	c4.429,7.857,8.458,14.5,18.143,14.5c9.262,0,15.104-3.623,15.104-17.713v-95.858h28.19v96.239
	c0,29.189-17.114,42.476-42.095,42.476c-22.572,0-35.643-11.681-42.291-25.75L351.938,386.818z"/>
</svg>
