<?xml version="1.0" encoding="utf-8"?>
<!-- Generator: Adobe Illustrator 14.0.0, SVG Export Plug-In . SVG Version: 6.00 Build 43363)  -->
<!DOCTYPE svg PUBLIC "-//W3C//DTD SVG 1.1//EN" "http://www.w3.org/Graphics/SVG/1.1/DTD/svg11.dtd">
<svg version="1.1" id="Layer_2_1_" xmlns="http://www.w3.org/2000/svg" xmlns:xlink="http://www.w3.org/1999/xlink" x="0px" y="0px"
	 width="300px" height="267.162px" viewBox="250.047 165.278 300 267.162" enable-background="new 250.047 165.278 300 267.162"
	 xml:space="preserve">
<g>
	<path fill="#61DAFB" d="M550.048,298.89c0-19.874-24.889-38.708-63.045-50.387c8.805-38.892,4.892-69.833-12.354-79.74
		c-3.975-2.323-8.622-3.424-13.697-3.424v13.637c2.813,0,5.075,0.55,6.972,1.59c8.316,4.77,11.924,22.931,9.111,46.29
		c-0.673,5.749-1.773,11.802-3.119,17.978c-11.985-2.935-25.071-5.198-38.83-6.665c-8.255-11.313-16.816-21.586-25.438-30.575
		c19.936-18.528,38.646-28.679,51.366-28.679v-13.637l0,0c-16.816,0-38.83,11.985-61.088,32.776
		c-22.258-20.668-44.272-32.532-61.088-32.532v13.637c12.658,0,31.431,10.089,51.366,28.496
		c-8.561,8.989-17.122,19.201-25.255,30.514c-13.82,1.467-26.906,3.73-38.891,6.727c-1.406-6.115-2.446-12.047-3.18-17.733
		c-2.874-23.359,0.673-41.521,8.928-46.352c1.834-1.101,4.219-1.59,7.032-1.59v-13.636l0,0c-5.137,0-9.784,1.101-13.82,3.424
		c-17.183,9.906-21.036,40.787-12.169,79.555c-38.035,11.741-62.801,30.514-62.801,50.326c0,19.874,24.888,38.708,63.045,50.387
		c-8.806,38.891-4.892,69.833,12.352,79.739c3.975,2.323,8.623,3.424,13.759,3.424c16.816,0,38.83-11.984,61.088-32.775
		c22.259,20.668,44.272,32.531,61.089,32.531c5.137,0,9.783-1.101,13.819-3.425c17.183-9.905,21.036-40.787,12.169-79.555
		C525.282,337.537,550.048,318.702,550.048,298.89z M470.431,258.104c-2.263,7.888-5.075,16.021-8.255,24.154
		c-2.507-4.892-5.137-9.784-8.011-14.676c-2.813-4.892-5.81-9.662-8.806-14.309C454.043,254.557,462.42,256.146,470.431,258.104z
		 M442.424,323.228c-4.77,8.256-9.661,16.083-14.736,23.359c-9.111,0.795-18.345,1.223-27.64,1.223
		c-9.234,0-18.467-0.428-27.518-1.162c-5.075-7.276-10.029-15.043-14.798-23.236c-4.647-8.011-8.867-16.144-12.719-24.337
		c3.791-8.194,8.072-16.388,12.658-24.398c4.77-8.255,9.662-16.083,14.737-23.359c9.111-0.795,18.345-1.223,27.64-1.223
		c9.233,0,18.467,0.428,27.517,1.162c5.076,7.277,10.029,15.042,14.799,23.237c4.647,8.01,8.866,16.144,12.719,24.337
		C451.229,307.022,447.011,315.217,442.424,323.228z M462.176,315.278c3.302,8.194,6.115,16.389,8.438,24.337
		c-8.011,1.957-16.449,3.608-25.193,4.893c2.996-4.709,5.992-9.539,8.806-14.492C457.039,325.123,459.669,320.171,462.176,315.278z
		 M400.17,380.524c-5.687-5.87-11.374-12.413-17-19.567c5.503,0.245,11.129,0.428,16.816,0.428c5.748,0,11.435-0.122,17-0.428
		C411.482,368.111,405.796,374.654,400.17,380.524z M354.675,344.508c-8.684-1.284-17.061-2.874-25.071-4.83
		c2.262-7.89,5.075-16.021,8.255-24.154c2.507,4.892,5.136,9.783,8.011,14.676C348.743,335.091,351.678,339.86,354.675,344.508z
		 M399.864,217.255c5.687,5.871,11.373,12.414,16.999,19.568c-5.503-0.245-11.129-0.428-16.815-0.428
		c-5.749,0-11.435,0.122-17,0.428C388.551,229.669,394.238,223.126,399.864,217.255z M354.613,253.273
		c-2.996,4.708-5.993,9.539-8.805,14.492c-2.813,4.892-5.443,9.784-7.95,14.676c-3.302-8.194-6.115-16.388-8.438-24.338
		C337.43,256.208,345.869,254.557,354.613,253.273z M299.273,329.832c-21.647-9.233-35.65-21.341-35.65-30.942
		c0-9.6,14.003-21.769,35.65-30.941c5.259-2.263,11.007-4.281,16.938-6.176c3.485,11.985,8.072,24.46,13.759,37.24
		c-5.626,12.719-10.151,25.132-13.575,37.057C310.341,334.174,304.593,332.095,299.273,329.832z M332.171,417.215
		c-8.316-4.77-11.924-22.932-9.111-46.29c0.672-5.749,1.773-11.803,3.119-17.978c11.985,2.935,25.071,5.196,38.83,6.665
		c8.255,11.313,16.816,21.585,25.438,30.574c-19.935,18.528-38.646,28.68-51.366,28.68
		C336.33,418.805,334.006,418.254,332.171,417.215z M477.219,370.618c2.873,23.359-0.673,41.521-8.928,46.352
		c-1.835,1.101-4.22,1.59-7.032,1.59c-12.658,0-31.431-10.09-51.366-28.495c8.561-8.989,17.122-19.201,25.255-30.514
		c13.82-1.468,26.906-3.73,38.891-6.727C475.445,359.001,476.546,364.932,477.219,370.618z M500.761,329.832
		c-5.259,2.263-11.007,4.28-16.938,6.176c-3.485-11.985-8.071-24.46-13.759-37.24c5.626-12.719,10.151-25.133,13.575-37.057
		c6.054,1.896,11.802,3.975,17.184,6.237c21.646,9.233,35.649,21.341,35.649,30.941
		C536.411,308.491,522.407,320.659,500.761,329.832z"/>
	<path fill="#61DAFB" d="M338.776,165.523L338.776,165.523L338.776,165.523z"/>
	<circle fill="#61DAFB" cx="399.986" cy="298.89" r="27.946"/>
	<path fill="#61DAFB" d="M460.892,165.339L460.892,165.339L460.892,165.339z"/>
</g>
</svg>
